<svg id="kity_svg_6" xmlns="http://www.w3.org/2000/svg" xmlns:xlink="http://www.w3.org/1999/xlink" version="1.1" width="2439" height="1801" style="background: rgb(251, 251, 251); visibility: visible;" viewBox="0 0 2439 1801"><defs id="kity_defs_7"><linearGradient id="kity_linearGradient_17" x1="0" y1="0" x2="0" y2="1"><stop id="kity_stop_18" offset="0" stop-color="rgb(255, 255, 255)"></stop><stop id="kity_stop_19" offset="1" stop-color="rgb(204, 204, 204)"></stop></linearGradient><marker id="kity_marker_2" orient="auto" refX="6" refY="0" viewBox="-7 -7 14 14" markerWidth="7" markerHeight="7" markerUnits="userSpaceOnUse"><path id="kity_path_3" fill="rgb(115, 161, 191)" stroke="none" d="M6,0A6,6,0,1,1,-6,0A6,6,0,1,1,6,0"></path></marker></defs><g id="kity_g_8"><g id="minder1" text-rendering="geometricPrecision"><g id="minder_connect_group1"><path id="kity_path_31" fill="none" stroke="rgb(115, 161, 191)" stroke-width="1" d="M1433.4998779296875,820.5A219,661,0,0,1,1652.4998779296875,159.5"></path><path id="kity_path_45" fill="none" stroke="rgb(115, 161, 191)" stroke-width="1" d="M1433.4998779296875,820.5A219,266,0,0,1,1652.4998779296875,554.5"></path><path id="kity_path_182" fill="none" stroke="rgb(115, 161, 191)" stroke-width="1" d="M2108.4998779296875,159.5C2128.4998779296875,159.5,2128.4998779296875,97.5,2148.4998779296875,97.5"></path><path id="kity_path_183" fill="none" stroke="rgb(115, 161, 191)" stroke-width="1" d="M2108.4998779296875,159.5C2128.4998779296875,159.5,2128.4998779296875,159.5,2148.4998779296875,159.5"></path><path id="kity_path_186" fill="none" stroke="rgb(115, 161, 191)" stroke-width="1" d="M2108.4998779296875,159.5C2128.4998779296875,159.5,2128.4998779296875,35.5,2148.4998779296875,35.5"></path><path id="kity_path_187" fill="none" stroke="rgb(115, 161, 191)" stroke-width="1" d="M1720.4998779296875,159.5C1740.4998779296875,159.5,1740.4998779296875,159.5,1760.4998779296875,159.5"></path><path id="kity_path_211" fill="none" stroke="rgb(115, 161, 191)" stroke-width="1" d="M1720.4998779296875,554.5C1740.4998779296875,554.5,1740.4998779296875,554.5,1760.4998779296875,554.5"></path><path id="kity_path_222" fill="none" stroke="rgb(115, 161, 191)" stroke-width="1" d="M2128.4998779296875,554.5C2157.4998779296875,554.5,2157.4998779296875,648.5,2186.4998779296875,648.5"></path><path id="kity_path_223" fill="none" stroke="rgb(115, 161, 191)" stroke-width="1" d="M2128.4998779296875,554.5C2158.9998779296875,554.5,2158.9998779296875,707.5,2189.4998779296875,707.5"></path><path id="kity_path_224" fill="none" stroke="rgb(115, 161, 191)" stroke-width="1" d="M2128.4998779296875,554.5C2150.9998779296875,554.5,2150.9998779296875,534.5,2173.4998779296875,534.5"></path><path id="kity_path_225" fill="none" stroke="rgb(115, 161, 191)" stroke-width="1" d="M2128.4998779296875,554.5C2147.9998779296875,554.5,2147.9998779296875,479.5,2167.4998779296875,479.5"></path><path id="kity_path_226" fill="none" stroke="rgb(115, 161, 191)" stroke-width="1" d="M2128.4998779296875,554.5C2160.4998779296875,554.5,2160.4998779296875,588.5,2192.4998779296875,588.5"></path><path id="kity_path_228" fill="none" stroke="rgb(115, 161, 191)" stroke-width="1" d="M2108.4998779296875,159.5C2128.9998779296875,159.5,2128.9998779296875,301.5,2149.4998779296875,301.5"></path><path id="kity_path_230" fill="none" stroke="rgb(115, 161, 191)" stroke-width="1" d="M2108.4998779296875,159.5C2134.9998779296875,159.5,2134.9998779296875,230.5,2161.4998779296875,230.5"></path><path id="kity_path_261" fill="none" stroke="rgb(115, 161, 191)" stroke-width="1" d="M2128.4998779296875,554.5C2164.4998779296875,554.5,2164.4998779296875,813.5,2200.4998779296875,813.5"></path><path id="kity_path_301" fill="none" stroke="rgb(115, 161, 191)" stroke-width="1" d="M2293.4998779296875,813.5C2313.4998779296875,813.5,2313.4998779296875,720.5,2333.4998779296875,720.5"></path><path id="kity_path_302" fill="none" stroke="rgb(115, 161, 191)" stroke-width="1" d="M2293.4998779296875,813.5C2313.4998779296875,813.5,2313.4998779296875,782.5,2333.4998779296875,782.5"></path><path id="kity_path_303" fill="none" stroke="rgb(115, 161, 191)" stroke-width="1" d="M2293.4998779296875,813.5C2313.4998779296875,813.5,2313.4998779296875,906.5,2333.4998779296875,906.5"></path><path id="kity_path_305" fill="none" stroke="rgb(115, 161, 191)" stroke-width="1" d="M2293.4998779296875,813.5C2313.4998779296875,813.5,2313.4998779296875,844.5,2333.4998779296875,844.5"></path><path id="kity_path_316" fill="none" stroke="rgb(115, 161, 191)" stroke-width="1" d="M1433.4998779296875,820.5A296,511,0,0,1,1137.4998779296875,1331.5"></path><path id="kity_path_324" fill="none" stroke="rgb(115, 161, 191)" stroke-width="1" d="M1135.4998779296875,1331.5C936.4998779296875,1331.5,936.4998779296875,847.5,737.4998779296875,847.5"></path><path id="kity_path_332" fill="none" stroke="rgb(115, 161, 191)" stroke-width="1" d="M1135.4998779296875,1331.5C899.4998779296875,1331.5,899.4998779296875,1518.5,663.4998779296875,1518.5"></path><path id="kity_path_340" fill="none" stroke="rgb(115, 161, 191)" stroke-width="1" d="M1135.4998779296875,1331.5C944.9998779296875,1331.5,944.9998779296875,1770.5,754.4998779296875,1770.5"></path><path id="kity_path_457" fill="none" stroke="rgb(115, 161, 191)" stroke-width="1" d="M855.4998779296875,1518.5C626.4998779296875,1518.5,626.4998779296875,1318.5,397.4998779296875,1318.5"></path><path id="kity_path_458" fill="none" stroke="rgb(115, 161, 191)" stroke-width="1" d="M855.4998779296875,1518.5C690.9998779296875,1518.5,690.9998779296875,1650.5,526.4998779296875,1650.5"></path><path id="kity_path_459" fill="none" stroke="rgb(115, 161, 191)" stroke-width="1" d="M855.4998779296875,1518.5C678.9998779296875,1518.5,678.9998779296875,1729.5,502.4998779296875,1729.5"></path><path id="kity_path_496" fill="none" stroke="rgb(115, 161, 191)" stroke-width="1" d="M2307.4998779296875,648.5C2327.4998779296875,648.5,2327.4998779296875,648.5,2347.4998779296875,648.5"></path><path id="kity_path_519" fill="none" stroke="rgb(115, 161, 191)" stroke-width="1" d="M818.4998779296875,847.5C846.4998779296875,847.5,846.4998779296875,796.5,874.4998779296875,796.5"></path><path id="kity_path_522" fill="none" stroke="rgb(115, 161, 191)" stroke-width="1" d="M818.4998779296875,847.5C707.4998779296875,847.5,707.4998779296875,658.5,596.4998779296875,658.5"></path><path id="kity_path_527" fill="none" stroke="rgb(115, 161, 191)" stroke-width="1" d="M665.4998779296875,658.5C685.4998779296875,658.5,685.4998779296875,596.5,705.4998779296875,596.5"></path><path id="kity_path_528" fill="none" stroke="rgb(115, 161, 191)" stroke-width="1" d="M665.4998779296875,658.5C685.4998779296875,658.5,685.4998779296875,684.5,705.4998779296875,684.5"></path><path id="kity_path_617" fill="none" stroke="rgb(115, 161, 191)" stroke-width="1" d="M273.4998779296875,1274.5C297.4998779296875,1274.5,297.4998779296875,1135.5,321.4998779296875,1135.5"></path><path id="kity_path_618" fill="none" stroke="rgb(115, 161, 191)" stroke-width="1" d="M273.4998779296875,1274.5C228.4998779296875,1274.5,228.4998779296875,1306.5,183.4998779296875,1306.5"></path><path id="kity_path_619" fill="none" stroke="rgb(115, 161, 191)" stroke-width="1" d="M273.4998779296875,1274.5C147.4998779296875,1274.5,147.4998779296875,1352.5,21.4998779296875,1352.5"></path><path id="kity_path_620" fill="none" stroke="rgb(115, 161, 191)" stroke-width="1" d="M273.4998779296875,1274.5C158.9998779296875,1274.5,158.9998779296875,1411.5,44.4998779296875,1411.5"></path><path id="kity_path_621" fill="none" stroke="rgb(115, 161, 191)" stroke-width="1" d="M273.4998779296875,1274.5C293.4998779296875,1274.5,293.4998779296875,1248.5,313.4998779296875,1248.5"></path><path id="kity_path_622" fill="none" stroke="rgb(115, 161, 191)" stroke-width="1" d="M273.4998779296875,1274.5C276.4998779296875,1274.5,276.4998779296875,1311.5,279.4998779296875,1311.5"></path><path id="kity_path_623" fill="none" stroke="rgb(115, 161, 191)" stroke-width="1" d="M273.4998779296875,1274.5C153.9998779296875,1274.5,153.9998779296875,1264.5,34.4998779296875,1264.5"></path><path id="kity_path_624" fill="none" stroke="rgb(115, 161, 191)" stroke-width="1" d="M273.4998779296875,1274.5C269.4998779296875,1274.5,269.4998779296875,1393.5,265.4998779296875,1393.5"></path><path id="kity_path_625" fill="none" stroke="rgb(115, 161, 191)" stroke-width="1" d="M304.4998779296875,1191.5C221.9998779296875,1191.5,221.9998779296875,1274.5,139.4998779296875,1274.5"></path><path id="kity_path_626" fill="none" stroke="rgb(115, 161, 191)" stroke-width="1" d="M490.4998779296875,1318.5C386.9998779296875,1318.5,386.9998779296875,1191.5,283.4998779296875,1191.5"></path><path id="kity_path_627" fill="none" stroke="rgb(115, 161, 191)" stroke-width="1" d="M490.4998779296875,1318.5C519.9998779296875,1318.5,519.9998779296875,1237.5,549.4998779296875,1237.5"></path><path id="kity_path_629" fill="none" stroke="rgb(115, 161, 191)" stroke-width="1" d="M273.4998779296875,1274.5C311.4998779296875,1274.5,311.4998779296875,1440.5,349.4998779296875,1440.5"></path><path id="kity_path_637" fill="none" stroke="rgb(115, 161, 191)" stroke-width="1" d="M273.4998779296875,1274.5C293.4998779296875,1274.5,293.4998779296875,1508.5,313.4998779296875,1508.5"></path><path id="kity_path_645" fill="none" stroke="rgb(115, 161, 191)" stroke-width="1" d="M593.4998779296875,1237.5C613.4998779296875,1237.5,613.4998779296875,1154.5,633.4998779296875,1154.5"></path><path id="kity_path_653" fill="none" stroke="rgb(115, 161, 191)" stroke-width="1" d="M593.4998779296875,1237.5C613.4998779296875,1237.5,613.4998779296875,1206.5,633.4998779296875,1206.5"></path><path id="kity_path_661" fill="none" stroke="rgb(115, 161, 191)" stroke-width="1" d="M593.4998779296875,1237.5C613.4998779296875,1237.5,613.4998779296875,1258.5,633.4998779296875,1258.5"></path><path id="kity_path_669" fill="none" stroke="rgb(115, 161, 191)" stroke-width="1" d="M593.4998779296875,1237.5C613.4998779296875,1237.5,613.4998779296875,1315.5,633.4998779296875,1315.5"></path><path id="kity_path_680" fill="none" stroke="rgb(115, 161, 191)" stroke-width="1" d="M732.4998779296875,1315.5C752.4998779296875,1315.5,752.4998779296875,1315.5,772.4998779296875,1315.5"></path></g><g id="minder_node1"><path id="node_outline1" fill="rgb(115, 161, 191)" stroke="rgb(115, 161, 191)" d="M1337.4998779296875,800.5h192a5,5,0,0,1,5,5v30a5,5,0,0,1,-5,5h-192a5,5,0,0,1,-5,-5v-30a5,5,0,0,1,5,-5z" stroke-width="3"></path><g id="node_text1" fill="white"><text id="kity_text_22" text-rendering="inherit" font-size="16" dy=".8em" y="810.0999999046326" x="1356.4998779296875">人生最重要的3个问题</text></g></g><g id="kity_g_14" display="none"><path id="kity_path_15" fill="rgba(0, 92, 153, 0.5)" stroke="none" d="M330.4998779296875,1473.5h57v15h-57z"></path><path id="kity_path_16" fill="none" stroke="rgb(0, 76, 128)" d="M330.4998779296875,1473.5L387.4998779296875,1473.5" stroke-width="1"></path></g><g id="minder_node2" opacity="1"><g id="node_expander7" style="cursor: pointer;"><path id="kity_path_159" fill="white" stroke="gray" d="M1653.499870054809,159.5000151757863A6,6,0,1,1,1641.499870054809,159.5000151757863A6,6,0,1,1,1653.499870054809,159.5000151757863"></path><path id="kity_path_160" fill="none" stroke="gray" d="M1642.999870054809,159.5000151757863L1651.999870054809,159.5000151757863"></path></g><path id="node_outline8" fill="rgb(238, 243, 246)" stroke="rgb(115, 161, 191)" d="M1657.499870054809,143.5000151757863h60a3,3,0,0,1,3,3v26a3,3,0,0,1,-3,3h-60a3,3,0,0,1,-3,-3v-26a3,3,0,0,1,3,-3z" stroke-width="1"></path><g id="node_text8" fill="black"><text id="kity_text_71" text-rendering="inherit" font-size="14" dy=".8em" y="150.4000155095723" x="1699.499870054809"> </text></g><g id="node_priority1"><path id="kity_path_88" fill="#840023" stroke="none" d="M1674.9998719621576,163.0000151757863c0,3.866,3.134,7,7,7h6c3.866,0,7,-3.134,7,-7V157.0000151757863H1674.9998719621576V163.0000151757863z"></path><path id="kity_path_89" fill="#FF1200" stroke="none" d="M1694.9998719621576,160.0000151757863c0,3.866,-3.134,7,-7,7H1681.9998719621576c-3.866,0,-7,-3.134,-7,-7V157.0000151757863c0,-3.866,3.134,-7,7,-7h6c3.866,0,7,3.134,7,7V160.0000151757863z" opacity="0.8"></path><text id="kity_text_90" text-rendering="geometricPrecision" x="1683.9998719621576" y="159.5000151757863" text-anchor="middle" font-style="italic" font-size="12" fill="white" dy="5">1</text></g></g><g id="minder_node9" opacity="1"><g id="node_expander14" style="cursor: pointer;"><path id="kity_path_180" fill="white" stroke="gray" d="M1653.499870054809,554.5000061070486A6,6,0,1,1,1641.499870054809,554.5000061070486A6,6,0,1,1,1653.499870054809,554.5000061070486"></path><path id="kity_path_181" fill="none" stroke="gray" d="M1642.999870054809,554.5000061070486L1651.999870054809,554.5000061070486"></path></g><path id="node_outline15" fill="rgb(238, 243, 246)" stroke="rgb(115, 161, 191)" d="M1657.499870054809,538.5000061070486h60a3,3,0,0,1,3,3v26a3,3,0,0,1,-3,3h-60a3,3,0,0,1,-3,-3v-26a3,3,0,0,1,3,-3z" stroke-width="1"></path><g id="node_text15" fill="black"><text id="kity_text_85" text-rendering="inherit" font-size="14" dy=".8em" y="545.4000064408347" x="1699.499870054809"> </text></g><g id="node_priority2"><path id="kity_path_93" fill="#01467F" stroke="none" d="M1674.9998719621576,558.0000061070486c0,3.866,3.134,7,7,7h6c3.866,0,7,-3.134,7,-7V552.0000061070486H1674.9998719621576V558.0000061070486z"></path><path id="kity_path_94" fill="#0074FF" stroke="none" d="M1694.9998719621576,555.0000061070486c0,3.866,-3.134,7,-7,7H1681.9998719621576c-3.866,0,-7,-3.134,-7,-7V552.0000061070486c0,-3.866,3.134,-7,7,-7h6c3.866,0,7,3.134,7,7V555.0000061070486z" opacity="0.8"></path><text id="kity_text_95" text-rendering="geometricPrecision" x="1683.9998719621576" y="554.5000061070486" text-anchor="middle" font-style="italic" font-size="12" fill="white" dy="5">2</text></g></g><g id="minder_node4"><g id="node_expander1" style="cursor: pointer;" display="none"><path id="kity_path_141" fill="white" stroke="gray" d="M2148.4998595167062,97.50001659923373A6,6,0,1,1,2136.4998595167062,97.50001659923373A6,6,0,1,1,2148.4998595167062,97.50001659923373"></path><path id="kity_path_142" fill="none" stroke="gray"></path></g><path id="node_outline2" fill="none" stroke="none" d="M2153.4998595167062,81.50001659923373h100a5,5,0,0,1,5,5v22a5,5,0,0,1,-5,5h-100a5,5,0,0,1,-5,-5v-22a5,5,0,0,1,5,-5z"></path><g id="node_text2" fill="black"><text id="kity_text_59" text-rendering="inherit" font-size="12" dy=".8em" y="89.70001664691745" x="2158.4998595167062">创造论网站</text></g><a id="kity_a_96" xlink:href="https://www.chuangzaolun.com/" target="_blank" xlink:title="https://www.chuangzaolun.com/" style="cursor: pointer;"><path id="kity_path_98" fill="rgba(255, 255, 255, 0)" stroke="none" d="M2228.4998595167062,86.50001659923373h16a4,4,0,0,1,4,4v14a4,4,0,0,1,-4,4h-16a4,4,0,0,1,-4,-4v-14a4,4,0,0,1,4,-4z"></path><path id="kity_path_97" fill="#666" stroke="none" d="M2243.1138595167063,102.72401659923374h-1.278c-1.668,0,-3.07,-1.07,-3.599,-2.556h4.877c0.707,0,1.278,-0.571,1.278,-1.278V96.33401659923373c0,-0.707,-0.571,-1.278,-1.278,-1.278h-4.877C2238.7658595167063,93.57101659923373,2240.1678595167064,92.50001659923373,2241.835859516706,92.50001659923373h1.278c2.116,0,3.834,1.716,3.834,3.834V98.89001659923373C2246.947859516706,101.00801659923373,2245.2298595167063,102.72401659923374,2243.1138595167063,102.72401659923374zM2231.6118595167063,97.61201659923373c0,-0.707,0.573,-1.278,1.278,-1.278h7.668c0.707,0,1.278,0.571,1.278,1.278S2241.264859516706,98.89001659923373,2240.5578595167062,98.89001659923373H2232.889859516706C2232.184859516706,98.89001659923373,2231.6118595167063,98.31901659923373,2231.6118595167063,97.61201659923373zM2229.0558595167063,96.33401659923373V98.89001659923373c0,0.707,0.573,1.278,1.278,1.278h4.877c-0.528,1.486,-1.932,2.556,-3.599,2.556H2230.333859516706C2228.215859516706,102.72401659923374,2226.4998595167062,101.00801659923373,2226.4998595167062,98.89001659923373V96.33401659923373C2226.4998595167062,94.21601659923373,2228.215859516706,92.50001659923373,2230.333859516706,92.50001659923373h1.278c1.667,0,3.071,1.071,3.599,2.556H2230.333859516706C2229.628859516706,95.05601659923373,2229.0558595167063,95.62701659923373,2229.0558595167063,96.33401659923373z"></path></a></g><g id="minder_node5"><g id="node_expander2" style="cursor: pointer;" display="none"><path id="kity_path_144" fill="white" stroke="gray" d="M2148.4998595167062,159.5000151757863A6,6,0,1,1,2136.4998595167062,159.5000151757863A6,6,0,1,1,2148.4998595167062,159.5000151757863"></path><path id="kity_path_145" fill="none" stroke="gray"></path></g><path id="node_outline3" fill="none" stroke="none" d="M2153.4998595167062,143.5000151757863h88a5,5,0,0,1,5,5v22a5,5,0,0,1,-5,5h-88a5,5,0,0,1,-5,-5v-22a5,5,0,0,1,5,-5z"></path><g id="node_text3" fill="black"><text id="kity_text_61" text-rendering="inherit" font-size="12" dy=".8em" y="151.70001522347002" x="2158.4998595167062">理性信仰</text></g><a id="kity_a_99" xlink:href="https://www.lixingxinyang.com/" target="_blank" xlink:title="https://www.lixingxinyang.com/" style="cursor: pointer;"><path id="kity_path_101" fill="rgba(255, 255, 255, 0)" stroke="none" d="M2216.499855702009,148.5000151757863h16a4,4,0,0,1,4,4v14a4,4,0,0,1,-4,4h-16a4,4,0,0,1,-4,-4v-14a4,4,0,0,1,4,-4z"></path><path id="kity_path_100" fill="#666" stroke="none" d="M2231.113855702009,164.7240151757863h-1.278c-1.668,0,-3.07,-1.07,-3.599,-2.556h4.877c0.707,0,1.278,-0.571,1.278,-1.278V158.3340151757863c0,-0.707,-0.571,-1.278,-1.278,-1.278h-4.877C2226.765855702009,155.5710151757863,2228.167855702009,154.5000151757863,2229.8358557020088,154.5000151757863h1.278c2.116,0,3.834,1.716,3.834,3.834V160.8900151757863C2234.947855702009,163.0080151757863,2233.229855702009,164.7240151757863,2231.113855702009,164.7240151757863zM2219.611855702009,159.6120151757863c0,-0.707,0.573,-1.278,1.278,-1.278h7.668c0.707,0,1.278,0.571,1.278,1.278S2229.264855702009,160.8900151757863,2228.557855702009,160.8900151757863H2220.889855702009C2220.184855702009,160.8900151757863,2219.611855702009,160.3190151757863,2219.611855702009,159.6120151757863zM2217.055855702009,158.3340151757863V160.8900151757863c0,0.707,0.573,1.278,1.278,1.278h4.877c-0.528,1.486,-1.932,2.556,-3.599,2.556H2218.333855702009C2216.215855702009,164.7240151757863,2214.499855702009,163.0080151757863,2214.499855702009,160.8900151757863V158.3340151757863C2214.499855702009,156.2160151757863,2216.215855702009,154.5000151757863,2218.333855702009,154.5000151757863h1.278c1.667,0,3.071,1.071,3.599,2.556H2218.333855702009C2217.628855702009,157.0560151757863,2217.055855702009,157.6270151757863,2217.055855702009,158.3340151757863z"></path></a></g><g id="minder_node6" opacity="1"><g id="node_expander5" style="cursor: pointer;" display="none"><path id="kity_path_153" fill="white" stroke="gray" d="M2148.4998595167062,35.50001802268116A6,6,0,1,1,2136.4998595167062,35.50001802268116A6,6,0,1,1,2148.4998595167062,35.50001802268116"></path><path id="kity_path_154" fill="none" stroke="gray" d="M2137.9998595167062,35.50001802268116L2146.9998595167062,35.50001802268116"></path></g><path id="node_outline6" fill="none" stroke="none" d="M2153.4998595167062,19.50001802268116h148a5,5,0,0,1,5,5v22a5,5,0,0,1,-5,5h-148a5,5,0,0,1,-5,-5v-22a5,5,0,0,1,5,-5z" stroke-width="3"></path><g id="node_text6" fill="black"><text id="kity_text_67" text-rendering="inherit" font-size="12" dy=".8em" y="27.700018070364877" x="2158.4998595167062">创造论电子书和视频</text></g><a id="kity_a_108" xlink:href="http://43.136.235.235/c1/OneDrive%20-%20MSFT/%E6%96%B0/2023-4-1%E5%88%9B%E9%80%A0%E8%AE%BA" target="_blank" xlink:title="http://43.136.235.235/c1/OneDrive%20-%20MSFT/%E6%96%B0/2023-4-1%E5%88%9B%E9%80%A0%E8%AE%BA" style="cursor: pointer;"><path id="kity_path_110" fill="rgba(255, 255, 255, 0)" stroke="none" d="M2276.4998595167062,24.50001802268116h16a4,4,0,0,1,4,4v14a4,4,0,0,1,-4,4h-16a4,4,0,0,1,-4,-4v-14a4,4,0,0,1,4,-4z"></path><path id="kity_path_109" fill="#666" stroke="none" d="M2291.1138595167063,40.724018022681165h-1.278c-1.668,0,-3.07,-1.07,-3.599,-2.556h4.877c0.707,0,1.278,-0.571,1.278,-1.278V34.334018022681164c0,-0.707,-0.571,-1.278,-1.278,-1.278h-4.877C2286.7658595167063,31.571018022681162,2288.1678595167064,30.50001802268116,2289.835859516706,30.50001802268116h1.278c2.116,0,3.834,1.716,3.834,3.834V36.89001802268116C2294.947859516706,39.008018022681156,2293.2298595167063,40.724018022681165,2291.1138595167063,40.724018022681165zM2279.6118595167063,35.61201802268116c0,-0.707,0.573,-1.278,1.278,-1.278h7.668c0.707,0,1.278,0.571,1.278,1.278S2289.264859516706,36.89001802268116,2288.5578595167062,36.89001802268116H2280.889859516706C2280.184859516706,36.89001802268116,2279.6118595167063,36.31901802268116,2279.6118595167063,35.61201802268116zM2277.0558595167063,34.334018022681164V36.89001802268116c0,0.707,0.573,1.278,1.278,1.278h4.877c-0.528,1.486,-1.932,2.556,-3.599,2.556H2278.333859516706C2276.215859516706,40.724018022681165,2274.4998595167062,39.008018022681156,2274.4998595167062,36.89001802268116V34.334018022681164C2274.4998595167062,32.21601802268116,2276.215859516706,30.50001802268116,2278.333859516706,30.50001802268116h1.278c1.667,0,3.071,1.071,3.599,2.556H2278.333859516706C2277.628859516706,33.05601802268116,2277.0558595167063,33.62701802268116,2277.0558595167063,34.334018022681164z"></path></a></g><g id="minder_node3"><g id="node_expander6" style="cursor: pointer;"><path id="kity_path_156" fill="white" stroke="gray" d="M1760.499868424732,159.5000151757863A6,6,0,1,1,1748.499868424732,159.5000151757863A6,6,0,1,1,1760.499868424732,159.5000151757863"></path><path id="kity_path_157" fill="none" stroke="gray" d="M1749.999868424732,159.5000151757863L1758.999868424732,159.5000151757863"></path></g><path id="node_outline7" fill="none" stroke="none" d="M1765.499868424732,148.5000151757863h338a5,5,0,0,1,5,5v12a5,5,0,0,1,-5,5h-338a5,5,0,0,1,-5,-5v-12a5,5,0,0,1,5,-5z" stroke-width="3"></path><g id="node_text7" fill="black"><text id="kity_text_69" text-rendering="inherit" font-size="12" dy=".8em" y="151.70001522347002" x="1770.499868424732">我，人类，世界，宇宙，万有，从何而来:答案是三一上帝创造</text></g></g><g id="minder_node10" opacity="1"><g id="node_expander13" style="cursor: pointer;"><path id="kity_path_177" fill="white" stroke="gray" d="M1760.499868424732,554.5000061070486A6,6,0,1,1,1748.499868424732,554.5000061070486A6,6,0,1,1,1760.499868424732,554.5000061070486"></path><path id="kity_path_178" fill="none" stroke="gray" d="M1749.999868424732,554.5000061070486L1758.999868424732,554.5000061070486"></path></g><path id="node_outline14" fill="none" stroke="none" d="M1765.499868424732,543.5000061070486h358a5,5,0,0,1,5,5v12a5,5,0,0,1,-5,5h-358a5,5,0,0,1,-5,-5v-12a5,5,0,0,1,5,-5z" stroke-width="3"></path><g id="node_text14" fill="black"><text id="kity_text_83" text-rendering="inherit" font-size="12" dy=".8em" y="546.7000061547324" x="1770.499868424732">上帝是谁，以及上帝做了什么，和与你的关系，你需要认识上帝：</text></g></g><g id="minder_node11" opacity="1"><g id="node_expander8" style="cursor: pointer;"><path id="kity_path_162" fill="white" stroke="gray" d="M2186.4998586442707,648.5000039489187A6,6,0,1,1,2174.4998586442707,648.5000039489187A6,6,0,1,1,2186.4998586442707,648.5000039489187"></path><path id="kity_path_163" fill="none" stroke="gray" d="M2175.9998586442707,648.5000039489187L2184.9998586442707,648.5000039489187"></path></g><path id="node_outline9" fill="none" stroke="none" d="M2191.4998586442707,632.5000039489187h111a5,5,0,0,1,5,5v22a5,5,0,0,1,-5,5h-111a5,5,0,0,1,-5,-5v-22a5,5,0,0,1,5,-5z" stroke-width="3"></path><g id="node_text9" fill="black"><text id="kity_text_73" text-rendering="inherit" font-size="12" dy=".8em" y="640.7000039966024" x="2196.4998586442707">改革宗电子书</text></g><a id="kity_a_111" xlink:href="http://43.136.235.235/c1/OneDrive%20-%20MSFT/%E6%96%B0/2023911----20231101----20231119/20231119" target="_blank" xlink:title="http://43.136.235.235/c1/OneDrive%20-%20MSFT/%E6%96%B0/2023911----20231101----20231119/20231119" style="cursor: pointer;"><path id="kity_path_113" fill="rgba(255, 255, 255, 0)" stroke="none" d="M2277.4998586442707,637.5000039489187h16a4,4,0,0,1,4,4v14a4,4,0,0,1,-4,4h-16a4,4,0,0,1,-4,-4v-14a4,4,0,0,1,4,-4z"></path><path id="kity_path_112" fill="#666" stroke="none" d="M2292.1138586442707,653.7240039489187h-1.278c-1.668,0,-3.07,-1.07,-3.599,-2.556h4.877c0.707,0,1.278,-0.571,1.278,-1.278V647.3340039489186c0,-0.707,-0.571,-1.278,-1.278,-1.278h-4.877C2287.765858644271,644.5710039489187,2289.167858644271,643.5000039489187,2290.8358586442705,643.5000039489187h1.278c2.116,0,3.834,1.716,3.834,3.834V649.8900039489187C2295.9478586442706,652.0080039489187,2294.2298586442707,653.7240039489187,2292.1138586442707,653.7240039489187zM2280.611858644271,648.6120039489186c0,-0.707,0.573,-1.278,1.278,-1.278h7.668c0.707,0,1.278,0.571,1.278,1.278S2290.2648586442706,649.8900039489187,2289.5578586442707,649.8900039489187H2281.8898586442706C2281.1848586442707,649.8900039489187,2280.611858644271,649.3190039489186,2280.611858644271,648.6120039489186zM2278.0558586442708,647.3340039489186V649.8900039489187c0,0.707,0.573,1.278,1.278,1.278h4.877c-0.528,1.486,-1.932,2.556,-3.599,2.556H2279.3338586442705C2277.2158586442706,653.7240039489187,2275.4998586442707,652.0080039489187,2275.4998586442707,649.8900039489187V647.3340039489186C2275.4998586442707,645.2160039489187,2277.2158586442706,643.5000039489187,2279.3338586442705,643.5000039489187h1.278c1.667,0,3.071,1.071,3.599,2.556H2279.3338586442705C2278.6288586442706,646.0560039489187,2278.0558586442708,646.6270039489186,2278.0558586442708,647.3340039489186z"></path></a></g><g id="minder_node12" opacity="1"><g id="node_expander9" style="cursor: pointer;" display="none"><path id="kity_path_165" fill="white" stroke="gray" d="M2189.4998585753942,707.5000025943477A6,6,0,1,1,2177.4998585753942,707.5000025943477A6,6,0,1,1,2189.4998585753942,707.5000025943477"></path><path id="kity_path_166" fill="none" stroke="gray"></path></g><path id="node_outline10" fill="none" stroke="none" d="M2194.4998585753942,691.5000025943477h100a5,5,0,0,1,5,5v22a5,5,0,0,1,-5,5h-100a5,5,0,0,1,-5,-5v-22a5,5,0,0,1,5,-5z" stroke-width="3"></path><g id="node_text10" fill="black"><text id="kity_text_75" text-rendering="inherit" font-size="12" dy=".8em" y="699.7000026420314" x="2199.4998585753942">要道电子书</text></g><a id="kity_a_114" xlink:href="http://43.136.235.235/c2/%E6%95%B4%E7%90%86/%E5%9F%BA%E8%A6%81%20%E8%A6%81%E9%81%93" target="_blank" xlink:title="http://43.136.235.235/c2/%E6%95%B4%E7%90%86/%E5%9F%BA%E8%A6%81%20%E8%A6%81%E9%81%93" style="cursor: pointer;"><path id="kity_path_116" fill="rgba(255, 255, 255, 0)" stroke="none" d="M2269.4998585753942,696.5000025943477h16a4,4,0,0,1,4,4v14a4,4,0,0,1,-4,4h-16a4,4,0,0,1,-4,-4v-14a4,4,0,0,1,4,-4z"></path><path id="kity_path_115" fill="#666" stroke="none" d="M2284.1138585753943,712.7240025943478h-1.278c-1.668,0,-3.07,-1.07,-3.599,-2.556h4.877c0.707,0,1.278,-0.571,1.278,-1.278V706.3340025943477c0,-0.707,-0.571,-1.278,-1.278,-1.278h-4.877C2279.7658585753943,703.5710025943478,2281.1678585753943,702.5000025943477,2282.835858575394,702.5000025943477h1.278c2.116,0,3.834,1.716,3.834,3.834V708.8900025943477C2287.947858575394,711.0080025943478,2286.2298585753942,712.7240025943478,2284.1138585753943,712.7240025943478zM2272.6118585753943,707.6120025943477c0,-0.707,0.573,-1.278,1.278,-1.278h7.668c0.707,0,1.278,0.571,1.278,1.278S2282.264858575394,708.8900025943477,2281.557858575394,708.8900025943477H2273.889858575394C2273.184858575394,708.8900025943477,2272.6118585753943,708.3190025943477,2272.6118585753943,707.6120025943477zM2270.0558585753943,706.3340025943477V708.8900025943477c0,0.707,0.573,1.278,1.278,1.278h4.877c-0.528,1.486,-1.932,2.556,-3.599,2.556H2271.333858575394C2269.215858575394,712.7240025943478,2267.4998585753942,711.0080025943478,2267.4998585753942,708.8900025943477V706.3340025943477C2267.4998585753942,704.2160025943477,2269.215858575394,702.5000025943477,2271.333858575394,702.5000025943477h1.278c1.667,0,3.071,1.071,3.599,2.556H2271.333858575394C2270.628858575394,705.0560025943478,2270.0558585753943,705.6270025943477,2270.0558585753943,706.3340025943477z"></path></a></g><g id="minder_node13" opacity="1"><g id="node_expander10" style="cursor: pointer;" display="none"><path id="kity_path_168" fill="white" stroke="gray" d="M2173.4998589427355,534.5000065662252A6,6,0,1,1,2161.4998589427355,534.5000065662252A6,6,0,1,1,2173.4998589427355,534.5000065662252"></path><path id="kity_path_169" fill="none" stroke="gray"></path></g><path id="node_outline11" fill="none" stroke="none" d="M2178.4998589427355,518.5000065662252h136a5,5,0,0,1,5,5v22a5,5,0,0,1,-5,5h-136a5,5,0,0,1,-5,-5v-22a5,5,0,0,1,5,-5z" stroke-width="3"></path><g id="node_text11" fill="black"><text id="kity_text_77" text-rendering="inherit" font-size="12" dy=".8em" y="526.700006613909" x="2183.4998589427355">约翰诺克斯神学院</text></g><a id="kity_a_117" xlink:href="http://43.136.235.235/c1/OneDrive%20-%20MSFT/%E6%96%B0/20231125/%E7%BA%A6%E7%BF%B0%E8%AF%BA%E5%85%8B%E6%96%AF%E7%A5%9E%E5%AD%A6%E9%99%A2" target="_blank" xlink:title="http://43.136.235.235/c1/OneDrive%20-%20MSFT/%E6%96%B0/20231125/%E7%BA%A6%E7%BF%B0%E8%AF%BA%E5%85%8B%E6%96%AF%E7%A5%9E%E5%AD%A6%E9%99%A2" style="cursor: pointer;"><path id="kity_path_119" fill="rgba(255, 255, 255, 0)" stroke="none" d="M2289.4998589427355,523.5000065662252h16a4,4,0,0,1,4,4v14a4,4,0,0,1,-4,4h-16a4,4,0,0,1,-4,-4v-14a4,4,0,0,1,4,-4z"></path><path id="kity_path_118" fill="#666" stroke="none" d="M2304.1138589427355,539.7240065662253h-1.278c-1.668,0,-3.07,-1.07,-3.599,-2.556h4.877c0.707,0,1.278,-0.571,1.278,-1.278V533.3340065662252c0,-0.707,-0.571,-1.278,-1.278,-1.278h-4.877C2299.7658589427356,530.5710065662253,2301.1678589427356,529.5000065662252,2302.8358589427353,529.5000065662252h1.278c2.116,0,3.834,1.716,3.834,3.834V535.8900065662252C2307.9478589427354,538.0080065662253,2306.2298589427355,539.7240065662253,2304.1138589427355,539.7240065662253zM2292.6118589427356,534.6120065662252c0,-0.707,0.573,-1.278,1.278,-1.278h7.668c0.707,0,1.278,0.571,1.278,1.278S2302.2648589427354,535.8900065662252,2301.5578589427355,535.8900065662252H2293.8898589427354C2293.1848589427354,535.8900065662252,2292.6118589427356,535.3190065662252,2292.6118589427356,534.6120065662252zM2290.0558589427355,533.3340065662252V535.8900065662252c0,0.707,0.573,1.278,1.278,1.278h4.877c-0.528,1.486,-1.932,2.556,-3.599,2.556H2291.3338589427353C2289.2158589427354,539.7240065662253,2287.4998589427355,538.0080065662253,2287.4998589427355,535.8900065662252V533.3340065662252C2287.4998589427355,531.2160065662252,2289.2158589427354,529.5000065662252,2291.3338589427353,529.5000065662252h1.278c1.667,0,3.071,1.071,3.599,2.556H2291.3338589427353C2290.6288589427354,532.0560065662253,2290.0558589427355,532.6270065662252,2290.0558589427355,533.3340065662252z"></path></a></g><g id="minder_node14" opacity="1"><g id="node_expander11" style="cursor: pointer;" display="none"><path id="kity_path_171" fill="white" stroke="gray" d="M2167.4998590804885,479.5000078289608A6,6,0,1,1,2155.4998590804885,479.5000078289608A6,6,0,1,1,2167.4998590804885,479.5000078289608"></path><path id="kity_path_172" fill="none" stroke="gray"></path></g><path id="node_outline12" fill="none" stroke="none" d="M2172.4998590804885,463.5000078289608h148a5,5,0,0,1,5,5v22a5,5,0,0,1,-5,5h-148a5,5,0,0,1,-5,-5v-22a5,5,0,0,1,5,-5z" stroke-width="3"></path><g id="node_text12" fill="black"><text id="kity_text_79" text-rendering="inherit" font-size="12" dy=".8em" y="471.7000078766445" x="2177.4998590804885">林格尼尔司布尔讲道</text></g><a id="kity_a_120" xlink:href="http://43.136.235.235/c1/OneDrive%20-%20MSFT/%E6%96%B0/2023-4-5G%E6%94%B9%E9%9D%A9%E5%AE%97%E7%A5%9E%E5%AD%A6_%E5%88%9B%E9%80%A0%E8%AE%BA%E5%92%8C%E4%B9%A6%E7%B1%8D%E6%9C%97%E8%AF%BB%E9%9F%B3%E9%A2%91/%E6%9E%97%E6%A0%BC%E5%B0%BC%E5%B0%94%20%E5%8F%B2%E6%99%AE%E7%BD%97%E5%8F%B2%E9%B2%8D%E5%B0%94%E6%96%AF%E5%B8%83%E5%B0%94%E5%8F%B8%E5%B8%83%E5%B0%94%E9%9F%B3%E8%A7%86%E9%A2%91%E8%AF%BE%E7%A8%8B" target="_blank" xlink:title="http://43.136.235.235/c1/OneDrive%20-%20MSFT/%E6%96%B0/2023-4-5G%E6%94%B9%E9%9D%A9%E5%AE%97%E7%A5%9E%E5%AD%A6_%E5%88%9B%E9%80%A0%E8%AE%BA%E5%92%8C%E4%B9%A6%E7%B1%8D%E6%9C%97%E8%AF%BB%E9%9F%B3%E9%A2%91/%E6%9E%97%E6%A0%BC%E5%B0%BC%E5%B0%94%20%E5%8F%B2%E6%99%AE%E7%BD%97%E5%8F%B2%E9%B2%8D%E5%B0%94%E6%96%AF%E5%B8%83%E5%B0%94%E5%8F%B8%E5%B8%83%E5%B0%94%E9%9F%B3%E8%A7%86%E9%A2%91%E8%AF%BE%E7%A8%8B" style="cursor: pointer;"><path id="kity_path_122" fill="rgba(255, 255, 255, 0)" stroke="none" d="M2295.4998590804885,468.5000078289608h16a4,4,0,0,1,4,4v14a4,4,0,0,1,-4,4h-16a4,4,0,0,1,-4,-4v-14a4,4,0,0,1,4,-4z"></path><path id="kity_path_121" fill="#666" stroke="none" d="M2310.1138590804885,484.7240078289608h-1.278c-1.668,0,-3.07,-1.07,-3.599,-2.556h4.877c0.707,0,1.278,-0.571,1.278,-1.278V478.3340078289608c0,-0.707,-0.571,-1.278,-1.278,-1.278h-4.877C2305.7658590804886,475.57100782896083,2307.1678590804886,474.5000078289608,2308.8358590804883,474.5000078289608h1.278c2.116,0,3.834,1.716,3.834,3.834V480.8900078289608C2313.9478590804883,483.0080078289608,2312.2298590804885,484.7240078289608,2310.1138590804885,484.7240078289608zM2298.6118590804886,479.6120078289608c0,-0.707,0.573,-1.278,1.278,-1.278h7.668c0.707,0,1.278,0.571,1.278,1.278S2308.2648590804883,480.8900078289608,2307.5578590804885,480.8900078289608H2299.8898590804883C2299.1848590804884,480.8900078289608,2298.6118590804886,480.3190078289608,2298.6118590804886,479.6120078289608zM2296.0558590804885,478.3340078289608V480.8900078289608c0,0.707,0.573,1.278,1.278,1.278h4.877c-0.528,1.486,-1.932,2.556,-3.599,2.556H2297.3338590804883C2295.2158590804884,484.7240078289608,2293.4998590804885,483.0080078289608,2293.4998590804885,480.8900078289608V478.3340078289608C2293.4998590804885,476.2160078289608,2295.2158590804884,474.5000078289608,2297.3338590804883,474.5000078289608h1.278c1.667,0,3.071,1.071,3.599,2.556H2297.3338590804883C2296.6288590804884,477.0560078289608,2296.0558590804885,477.6270078289608,2296.0558590804885,478.3340078289608z"></path></a></g><g id="minder_node15" opacity="1"><g id="node_expander12" style="cursor: pointer;" display="none"><path id="kity_path_174" fill="white" stroke="gray" d="M2192.4998585065177,588.5000053264484A6,6,0,1,1,2180.4998585065177,588.5000053264484A6,6,0,1,1,2192.4998585065177,588.5000053264484"></path><path id="kity_path_175" fill="none" stroke="gray"></path></g><path id="node_outline13" fill="none" stroke="none" d="M2197.4998585065177,572.5000053264484h88a5,5,0,0,1,5,5v22a5,5,0,0,1,-5,5h-88a5,5,0,0,1,-5,-5v-22a5,5,0,0,1,5,-5z" stroke-width="3"></path><g id="node_text13" fill="black"><text id="kity_text_81" text-rendering="inherit" font-size="12" dy=".8em" y="580.7000053741322" x="2202.4998585065177">动画电影</text></g><a id="kity_a_123" xlink:href="http://43.136.235.235/c1/%E8%A7%86%E9%A2%91/%E5%8A%A8%E7%94%BB%20%E7%94%B5%E5%BD%B1" target="_blank" xlink:title="http://43.136.235.235/c1/%E8%A7%86%E9%A2%91/%E5%8A%A8%E7%94%BB%20%E7%94%B5%E5%BD%B1" style="cursor: pointer;"><path id="kity_path_125" fill="rgba(255, 255, 255, 0)" stroke="none" d="M2260.4998546918205,577.5000053264484h16a4,4,0,0,1,4,4v14a4,4,0,0,1,-4,4h-16a4,4,0,0,1,-4,-4v-14a4,4,0,0,1,4,-4z"></path><path id="kity_path_124" fill="#666" stroke="none" d="M2275.1138546918205,593.7240053264485h-1.278c-1.668,0,-3.07,-1.07,-3.599,-2.556h4.877c0.707,0,1.278,-0.571,1.278,-1.278V587.3340053264484c0,-0.707,-0.571,-1.278,-1.278,-1.278h-4.877C2270.7658546918206,584.5710053264485,2272.1678546918206,583.5000053264484,2273.8358546918203,583.5000053264484h1.278c2.116,0,3.834,1.716,3.834,3.834V589.8900053264484C2278.9478546918203,592.0080053264485,2277.2298546918205,593.7240053264485,2275.1138546918205,593.7240053264485zM2263.6118546918206,588.6120053264484c0,-0.707,0.573,-1.278,1.278,-1.278h7.668c0.707,0,1.278,0.571,1.278,1.278S2273.2648546918203,589.8900053264484,2272.5578546918205,589.8900053264484H2264.8898546918203C2264.1848546918204,589.8900053264484,2263.6118546918206,589.3190053264484,2263.6118546918206,588.6120053264484zM2261.0558546918205,587.3340053264484V589.8900053264484c0,0.707,0.573,1.278,1.278,1.278h4.877c-0.528,1.486,-1.932,2.556,-3.599,2.556H2262.3338546918203C2260.2158546918204,593.7240053264485,2258.4998546918205,592.0080053264485,2258.4998546918205,589.8900053264484V587.3340053264484C2258.4998546918205,585.2160053264485,2260.2158546918204,583.5000053264484,2262.3338546918203,583.5000053264484h1.278c1.667,0,3.071,1.071,3.599,2.556H2262.3338546918203C2261.6288546918204,586.0560053264485,2261.0558546918205,586.6270053264484,2261.0558546918205,587.3340053264484z"></path></a></g><g id="minder_node16" opacity="1"><g id="node_expander16" style="cursor: pointer;" display="none"><path id="kity_path_249" fill="white" stroke="gray" d="M2149.4998594937474,301.5000119156326A6,6,0,1,1,2137.4998594937474,301.5000119156326A6,6,0,1,1,2149.4998594937474,301.5000119156326"></path><path id="kity_path_250" fill="none" stroke="gray"></path></g><path id="node_outline17" fill="none" stroke="none" d="M2154.4998594937474,285.5000119156326h124a5,5,0,0,1,5,5v22a5,5,0,0,1,-5,5h-124a5,5,0,0,1,-5,-5v-22a5,5,0,0,1,5,-5z" stroke-width="3"></path><g id="node_text17" fill="black"><text id="kity_text_243" text-rendering="inherit" font-size="12" dy=".8em" y="293.70001196331634" x="2159.4998594937474">为真道争辩网址</text></g><a id="kity_a_244" xlink:href="http://www.chineseapologetics.net/#" target="_blank" xlink:title="http://www.chineseapologetics.net/#" style="cursor: pointer;"><path id="kity_path_246" fill="rgba(255, 255, 255, 0)" stroke="none" d="M2253.4998594937474,290.5000119156326h16a4,4,0,0,1,4,4v14a4,4,0,0,1,-4,4h-16a4,4,0,0,1,-4,-4v-14a4,4,0,0,1,4,-4z"></path><path id="kity_path_245" fill="#666" stroke="none" d="M2268.1138594937474,306.7240119156326h-1.278c-1.668,0,-3.07,-1.07,-3.599,-2.556h4.877c0.707,0,1.278,-0.571,1.278,-1.278V300.33401191563263c0,-0.707,-0.571,-1.278,-1.278,-1.278h-4.877C2263.7658594937475,297.57101191563265,2265.1678594937475,296.5000119156326,2266.835859493747,296.5000119156326h1.278c2.116,0,3.834,1.716,3.834,3.834V302.8900119156326C2271.9478594937473,305.0080119156326,2270.2298594937474,306.7240119156326,2268.1138594937474,306.7240119156326zM2256.6118594937475,301.61201191563265c0,-0.707,0.573,-1.278,1.278,-1.278h7.668c0.707,0,1.278,0.571,1.278,1.278S2266.2648594937473,302.8900119156326,2265.5578594937474,302.8900119156326H2257.8898594937473C2257.1848594937474,302.8900119156326,2256.6118594937475,302.31901191563264,2256.6118594937475,301.61201191563265zM2254.0558594937474,300.33401191563263V302.8900119156326c0,0.707,0.573,1.278,1.278,1.278h4.877c-0.528,1.486,-1.932,2.556,-3.599,2.556H2255.3338594937472C2253.2158594937473,306.7240119156326,2251.4998594937474,305.0080119156326,2251.4998594937474,302.8900119156326V300.33401191563263C2251.4998594937474,298.21601191563263,2253.2158594937473,296.5000119156326,2255.3338594937472,296.5000119156326h1.278c1.667,0,3.071,1.071,3.599,2.556H2255.3338594937472C2254.6288594937473,299.0560119156326,2254.0558594937474,299.62701191563264,2254.0558594937474,300.33401191563263z"></path></a></g><g id="minder_node17" opacity="1"><g id="node_expander15" style="cursor: pointer;" display="none"><path id="kity_path_240" fill="white" stroke="gray" d="M2161.4998592182415,230.50001354570952A6,6,0,1,1,2149.4998592182415,230.50001354570952A6,6,0,1,1,2161.4998592182415,230.50001354570952"></path><path id="kity_path_241" fill="none" stroke="gray" d="M2150.9998592182415,230.50001354570952L2159.9998592182415,230.50001354570952"></path></g><path id="node_outline16" fill="none" stroke="none" d="M2166.4998592182415,214.50001354570952h88a5,5,0,0,1,5,5v22a5,5,0,0,1,-5,5h-88a5,5,0,0,1,-5,-5v-22a5,5,0,0,1,5,-5z" stroke-width="3"></path><g id="node_text16" fill="black"><text id="kity_text_234" text-rendering="inherit" font-size="12" dy=".8em" y="222.70001359339324" x="2171.4998592182415">护教书籍</text></g><a id="kity_a_235" xlink:href="http://43.136.235.235/c2/%E6%95%B4%E7%90%86/%E6%8A%A4%E6%95%99" target="_blank" xlink:title="http://43.136.235.235/c2/%E6%95%B4%E7%90%86/%E6%8A%A4%E6%95%99" style="cursor: pointer;"><path id="kity_path_237" fill="rgba(255, 255, 255, 0)" stroke="none" d="M2229.499855403544,219.50001354570952h16a4,4,0,0,1,4,4v14a4,4,0,0,1,-4,4h-16a4,4,0,0,1,-4,-4v-14a4,4,0,0,1,4,-4z"></path><path id="kity_path_236" fill="#666" stroke="none" d="M2244.113855403544,235.7240135457095h-1.278c-1.668,0,-3.07,-1.07,-3.599,-2.556h4.877c0.707,0,1.278,-0.571,1.278,-1.278V229.33401354570952c0,-0.707,-0.571,-1.278,-1.278,-1.278h-4.877C2239.7658554035443,226.57101354570952,2241.1678554035443,225.50001354570952,2242.835855403544,225.50001354570952h1.278c2.116,0,3.834,1.716,3.834,3.834V231.8900135457095C2247.947855403544,234.00801354570953,2246.229855403544,235.7240135457095,2244.113855403544,235.7240135457095zM2232.6118554035443,230.61201354570952c0,-0.707,0.573,-1.278,1.278,-1.278h7.668c0.707,0,1.278,0.571,1.278,1.278S2242.264855403544,231.8900135457095,2241.557855403544,231.8900135457095H2233.889855403544C2233.184855403544,231.8900135457095,2232.6118554035443,231.3190135457095,2232.6118554035443,230.61201354570952zM2230.0558554035442,229.33401354570952V231.8900135457095c0,0.707,0.573,1.278,1.278,1.278h4.877c-0.528,1.486,-1.932,2.556,-3.599,2.556H2231.333855403544C2229.215855403544,235.7240135457095,2227.499855403544,234.00801354570953,2227.499855403544,231.8900135457095V229.33401354570952C2227.499855403544,227.21601354570953,2229.215855403544,225.50001354570952,2231.333855403544,225.50001354570952h1.278c1.667,0,3.071,1.071,3.599,2.556H2231.333855403544C2230.628855403544,228.05601354570953,2230.0558554035442,228.62701354570953,2230.0558554035442,229.33401354570952z"></path></a></g><g id="minder_node19" opacity="1"><g id="node_expander18" style="cursor: pointer;"><path id="kity_path_266" fill="white" stroke="gray" d="M2200.499858322847,813.5000001607118A6,6,0,1,1,2188.499858322847,813.5000001607118A6,6,0,1,1,2200.499858322847,813.5000001607118"></path><path id="kity_path_267" fill="none" stroke="gray" d="M2189.999858322847,813.5000001607118L2198.999858322847,813.5000001607118"></path></g><path id="node_outline19" fill="none" stroke="none" d="M2205.499858322847,802.5000001607118h83a5,5,0,0,1,5,5v12a5,5,0,0,1,-5,5h-83a5,5,0,0,1,-5,-5v-12a5,5,0,0,1,5,-5z" stroke-width="3"></path><g id="node_text19" fill="black"><text id="kity_text_263" text-rendering="inherit" font-size="12" dy=".8em" y="805.7000002083955" x="2210.499858322847">改革宗音视频</text></g></g><g id="minder_node20"><g id="node_expander19" style="cursor: pointer;" display="none"><path id="kity_path_274" fill="white" stroke="gray" d="M2333.499855269323,720.500002295883A6,6,0,1,1,2321.499855269323,720.500002295883A6,6,0,1,1,2333.499855269323,720.500002295883"></path><path id="kity_path_275" fill="none" stroke="gray"></path></g><path id="node_outline20" fill="none" stroke="none" d="M2338.499855269323,704.500002295883h46a5,5,0,0,1,5,5v22a5,5,0,0,1,-5,5h-46a5,5,0,0,1,-5,-5v-22a5,5,0,0,1,5,-5z" stroke-width="3"></path><g id="node_text20" fill="black"><text id="kity_text_271" text-rendering="inherit" font-size="12" dy=".8em" y="712.7000023435667" x="2343.499855269323">1</text></g><a id="kity_a_298" xlink:href="http://43.136.235.235/c1/OneDrive%20-%20MSFT/c1" target="_blank" xlink:title="http://43.136.235.235/c1/OneDrive%20-%20MSFT/c1" style="cursor: pointer;"><path id="kity_path_300" fill="rgba(255, 255, 255, 0)" stroke="none" d="M2359.4998543156485,709.500002295883h16a4,4,0,0,1,4,4v14a4,4,0,0,1,-4,4h-16a4,4,0,0,1,-4,-4v-14a4,4,0,0,1,4,-4z"></path><path id="kity_path_299" fill="#666" stroke="none" d="M2374.1138543156485,725.724002295883h-1.278c-1.668,0,-3.07,-1.07,-3.599,-2.556h4.877c0.707,0,1.278,-0.571,1.278,-1.278V719.3340022958829c0,-0.707,-0.571,-1.278,-1.278,-1.278h-4.877C2369.7658543156485,716.571002295883,2371.1678543156486,715.500002295883,2372.8358543156482,715.500002295883h1.278c2.116,0,3.834,1.716,3.834,3.834V721.8900022958829C2377.9478543156483,724.008002295883,2376.2298543156485,725.724002295883,2374.1138543156485,725.724002295883zM2362.6118543156485,720.6120022958829c0,-0.707,0.573,-1.278,1.278,-1.278h7.668c0.707,0,1.278,0.571,1.278,1.278S2372.2648543156483,721.8900022958829,2371.5578543156485,721.8900022958829H2363.8898543156483C2363.1848543156484,721.8900022958829,2362.6118543156485,721.3190022958829,2362.6118543156485,720.6120022958829zM2360.0558543156485,719.3340022958829V721.8900022958829c0,0.707,0.573,1.278,1.278,1.278h4.877c-0.528,1.486,-1.932,2.556,-3.599,2.556H2361.3338543156483C2359.2158543156484,725.724002295883,2357.4998543156485,724.008002295883,2357.4998543156485,721.8900022958829V719.3340022958829C2357.4998543156485,717.216002295883,2359.2158543156484,715.500002295883,2361.3338543156483,715.500002295883h1.278c1.667,0,3.071,1.071,3.599,2.556H2361.3338543156483C2360.6288543156484,718.056002295883,2360.0558543156485,718.6270022958829,2360.0558543156485,719.3340022958829z"></path></a></g><g id="minder_node21"><g id="node_expander20" style="cursor: pointer;" display="none"><path id="kity_path_282" fill="white" stroke="gray" d="M2333.499855269323,782.5000008724355A6,6,0,1,1,2321.499855269323,782.5000008724355A6,6,0,1,1,2333.499855269323,782.5000008724355"></path><path id="kity_path_283" fill="none" stroke="gray"></path></g><path id="node_outline21" fill="none" stroke="none" d="M2338.499855269323,766.5000008724355h46a5,5,0,0,1,5,5v22a5,5,0,0,1,-5,5h-46a5,5,0,0,1,-5,-5v-22a5,5,0,0,1,5,-5z" stroke-width="3"></path><g id="node_text21" fill="black"><text id="kity_text_279" text-rendering="inherit" font-size="12" dy=".8em" y="774.7000009201192" x="2343.499855269323">2</text></g><a id="kity_a_284" xlink:href="http://43.136.235.235/c1/OneDrive%20-%20MSFT/%E6%96%B0/2023-4-5G%E6%94%B9%E9%9D%A9%E5%AE%97%E7%A5%9E%E5%AD%A6_%E5%88%9B%E9%80%A0%E8%AE%BA%E5%92%8C%E4%B9%A6%E7%B1%8D%E6%9C%97%E8%AF%BB%E9%9F%B3%E9%A2%91" target="_blank" xlink:title="http://43.136.235.235/c1/OneDrive%20-%20MSFT/%E6%96%B0/2023-4-5G%E6%94%B9%E9%9D%A9%E5%AE%97%E7%A5%9E%E5%AD%A6_%E5%88%9B%E9%80%A0%E8%AE%BA%E5%92%8C%E4%B9%A6%E7%B1%8D%E6%9C%97%E8%AF%BB%E9%9F%B3%E9%A2%91" style="cursor: pointer;"><path id="kity_path_286" fill="rgba(255, 255, 255, 0)" stroke="none" d="M2359.4998543156485,771.5000008724355h16a4,4,0,0,1,4,4v14a4,4,0,0,1,-4,4h-16a4,4,0,0,1,-4,-4v-14a4,4,0,0,1,4,-4z"></path><path id="kity_path_285" fill="#666" stroke="none" d="M2374.1138543156485,787.7240008724356h-1.278c-1.668,0,-3.07,-1.07,-3.599,-2.556h4.877c0.707,0,1.278,-0.571,1.278,-1.278V781.3340008724355c0,-0.707,-0.571,-1.278,-1.278,-1.278h-4.877C2369.7658543156485,778.5710008724355,2371.1678543156486,777.5000008724355,2372.8358543156482,777.5000008724355h1.278c2.116,0,3.834,1.716,3.834,3.834V783.8900008724355C2377.9478543156483,786.0080008724356,2376.2298543156485,787.7240008724356,2374.1138543156485,787.7240008724356zM2362.6118543156485,782.6120008724355c0,-0.707,0.573,-1.278,1.278,-1.278h7.668c0.707,0,1.278,0.571,1.278,1.278S2372.2648543156483,783.8900008724355,2371.5578543156485,783.8900008724355H2363.8898543156483C2363.1848543156484,783.8900008724355,2362.6118543156485,783.3190008724355,2362.6118543156485,782.6120008724355zM2360.0558543156485,781.3340008724355V783.8900008724355c0,0.707,0.573,1.278,1.278,1.278h4.877c-0.528,1.486,-1.932,2.556,-3.599,2.556H2361.3338543156483C2359.2158543156484,787.7240008724356,2357.4998543156485,786.0080008724356,2357.4998543156485,783.8900008724355V781.3340008724355C2357.4998543156485,779.2160008724355,2359.2158543156484,777.5000008724355,2361.3338543156483,777.5000008724355h1.278c1.667,0,3.071,1.071,3.599,2.556H2361.3338543156483C2360.6288543156484,780.0560008724356,2360.0558543156485,780.6270008724355,2360.0558543156485,781.3340008724355z"></path></a></g><g id="minder_node22" opacity="1"><g id="node_expander21" style="cursor: pointer;" display="none"><path id="kity_path_293" fill="white" stroke="gray" d="M2333.499855269323,906.4999980255407A6,6,0,1,1,2321.499855269323,906.4999980255407A6,6,0,1,1,2333.499855269323,906.4999980255407"></path><path id="kity_path_294" fill="none" stroke="gray"></path></g><path id="node_outline22" fill="none" stroke="none" d="M2338.499855269323,890.4999980255407h76a5,5,0,0,1,5,5v22a5,5,0,0,1,-5,5h-76a5,5,0,0,1,-5,-5v-22a5,5,0,0,1,5,-5z" stroke-width="3"></path><g id="node_text22" fill="black"><text id="kity_text_290" text-rendering="inherit" font-size="12" dy=".8em" y="898.6999980732244" x="2343.499855269323">有声书</text></g><a id="kity_a_295" xlink:href="https://zhagenvoice.com/more?category=%E5%85%A8%E9%83%A8" target="_blank" xlink:title="https://zhagenvoice.com/more?category=%E5%85%A8%E9%83%A8" style="cursor: pointer;"><path id="kity_path_297" fill="rgba(255, 255, 255, 0)" stroke="none" d="M2389.4998514546255,895.4999980255407h16a4,4,0,0,1,4,4v14a4,4,0,0,1,-4,4h-16a4,4,0,0,1,-4,-4v-14a4,4,0,0,1,4,-4z"></path><path id="kity_path_296" fill="#666" stroke="none" d="M2404.1138514546255,911.7239980255407h-1.278c-1.668,0,-3.07,-1.07,-3.599,-2.556h4.877c0.707,0,1.278,-0.571,1.278,-1.278V905.3339980255406c0,-0.707,-0.571,-1.278,-1.278,-1.278h-4.877C2399.7658514546256,902.5709980255407,2401.1678514546256,901.4999980255407,2402.8358514546253,901.4999980255407h1.278c2.116,0,3.834,1.716,3.834,3.834V907.8899980255406C2407.9478514546254,910.0079980255407,2406.2298514546255,911.7239980255407,2404.1138514546255,911.7239980255407zM2392.6118514546256,906.6119980255406c0,-0.707,0.573,-1.278,1.278,-1.278h7.668c0.707,0,1.278,0.571,1.278,1.278S2402.2648514546254,907.8899980255406,2401.5578514546255,907.8899980255406H2393.8898514546254C2393.1848514546255,907.8899980255406,2392.6118514546256,907.3189980255406,2392.6118514546256,906.6119980255406zM2390.0558514546256,905.3339980255406V907.8899980255406c0,0.707,0.573,1.278,1.278,1.278h4.877c-0.528,1.486,-1.932,2.556,-3.599,2.556H2391.3338514546253C2389.2158514546254,911.7239980255407,2387.4998514546255,910.0079980255407,2387.4998514546255,907.8899980255406V905.3339980255406C2387.4998514546255,903.2159980255407,2389.2158514546254,901.4999980255407,2391.3338514546253,901.4999980255407h1.278c1.667,0,3.071,1.071,3.599,2.556H2391.3338514546253C2390.6288514546254,904.0559980255407,2390.0558514546256,904.6269980255406,2390.0558514546256,905.3339980255406z"></path></a></g><g id="minder_node23"><g id="node_expander22" style="cursor: pointer;" display="none"><path id="kity_path_310" fill="white" stroke="gray" d="M2333.499855269323,844.4999994489881A6,6,0,1,1,2321.499855269323,844.4999994489881A6,6,0,1,1,2333.499855269323,844.4999994489881"></path><path id="kity_path_311" fill="none" stroke="gray"></path></g><path id="node_outline23" fill="none" stroke="none" d="M2338.499855269323,828.4999994489881h46a5,5,0,0,1,5,5v22a5,5,0,0,1,-5,5h-46a5,5,0,0,1,-5,-5v-22a5,5,0,0,1,5,-5z" stroke-width="3"></path><g id="node_text23" fill="black"><text id="kity_text_307" text-rendering="inherit" font-size="12" dy=".8em" y="836.6999994966718" x="2343.499855269323">3</text></g><a id="kity_a_312" xlink:href="http://43.136.235.235/h" target="_blank" xlink:title="http://43.136.235.235/h" style="cursor: pointer;"><path id="kity_path_314" fill="rgba(255, 255, 255, 0)" stroke="none" d="M2359.4998543156485,833.4999994489881h16a4,4,0,0,1,4,4v14a4,4,0,0,1,-4,4h-16a4,4,0,0,1,-4,-4v-14a4,4,0,0,1,4,-4z"></path><path id="kity_path_313" fill="#666" stroke="none" d="M2374.1138543156485,849.7239994489881h-1.278c-1.668,0,-3.07,-1.07,-3.599,-2.556h4.877c0.707,0,1.278,-0.571,1.278,-1.278V843.333999448988c0,-0.707,-0.571,-1.278,-1.278,-1.278h-4.877C2369.7658543156485,840.5709994489881,2371.1678543156486,839.4999994489881,2372.8358543156482,839.4999994489881h1.278c2.116,0,3.834,1.716,3.834,3.834V845.8899994489881C2377.9478543156483,848.0079994489881,2376.2298543156485,849.7239994489881,2374.1138543156485,849.7239994489881zM2362.6118543156485,844.6119994489881c0,-0.707,0.573,-1.278,1.278,-1.278h7.668c0.707,0,1.278,0.571,1.278,1.278S2372.2648543156483,845.8899994489881,2371.5578543156485,845.8899994489881H2363.8898543156483C2363.1848543156484,845.8899994489881,2362.6118543156485,845.318999448988,2362.6118543156485,844.6119994489881zM2360.0558543156485,843.333999448988V845.8899994489881c0,0.707,0.573,1.278,1.278,1.278h4.877c-0.528,1.486,-1.932,2.556,-3.599,2.556H2361.3338543156483C2359.2158543156484,849.7239994489881,2357.4998543156485,848.0079994489881,2357.4998543156485,845.8899994489881V843.333999448988C2357.4998543156485,841.2159994489881,2359.2158543156484,839.4999994489881,2361.3338543156483,839.4999994489881h1.278c1.667,0,3.071,1.071,3.599,2.556H2361.3338543156483C2360.6288543156484,842.0559994489881,2360.0558543156485,842.626999448988,2360.0558543156485,843.333999448988z"></path></a></g><g id="minder_node24" opacity="1"><g id="node_expander23" style="cursor: pointer;"><path id="kity_path_321" fill="white" stroke="gray" d="M984.4998854142659,1331.4999882680381A6,6,0,1,1,972.4998854142659,1331.4999882680381A6,6,0,1,1,984.4998854142659,1331.4999882680381"></path><path id="kity_path_322" fill="none" stroke="gray" d="M973.9998854142659,1331.4999882680381L982.9998854142659,1331.4999882680381"></path></g><path id="node_outline24" fill="rgb(238, 243, 246)" stroke="rgb(115, 161, 191)" d="M988.4998854142659,1315.4999882680381h144a3,3,0,0,1,3,3v26a3,3,0,0,1,-3,3h-144a3,3,0,0,1,-3,-3v-26a3,3,0,0,1,3,-3z" stroke-width="1"></path><g id="node_text24" fill="black"><text id="kity_text_318" text-rendering="inherit" font-size="14" dy=".8em" y="1322.3999886018241" x="1030.499885414266">如何认识上帝</text></g><g id="node_priority3"><path id="kity_path_512" fill="#006300" stroke="none" d="M1005.9998873216146,1334.9999882680381c0,3.866,3.134,7,7,7h6c3.866,0,7,-3.134,7,-7V1328.9999882680381H1005.9998873216146V1334.9999882680381z"></path><path id="kity_path_513" fill="#00AF00" stroke="none" d="M1025.9998873216146,1331.9999882680381c0,3.866,-3.134,7,-7,7H1012.9998873216146c-3.866,0,-7,-3.134,-7,-7V1328.9999882680381c0,-3.866,3.134,-7,7,-7h6c3.866,0,7,3.134,7,7V1331.9999882680381z" opacity="0.8"></path><text id="kity_text_514" text-rendering="geometricPrecision" x="1014.9998873216146" y="1331.4999882680381" text-anchor="middle" font-style="italic" font-size="12" fill="white" dy="5">3</text></g></g><g id="minder_node25" opacity="1"><g id="node_expander24" style="cursor: pointer;"><path id="kity_path_329" fill="white" stroke="gray" d="M737.4998919116147,847.4999993801116A6,6,0,1,1,725.4998919116147,847.4999993801116A6,6,0,1,1,737.4998919116147,847.4999993801116"></path><path id="kity_path_330" fill="none" stroke="gray" d="M726.9998919116147,847.4999993801116L735.9998919116147,847.4999993801116"></path></g><path id="node_outline25" fill="none" stroke="none" d="M742.4998919116147,836.4999993801116h71a5,5,0,0,1,5,5v12a5,5,0,0,1,-5,5h-71a5,5,0,0,1,-5,-5v-12a5,5,0,0,1,5,-5z" stroke-width="3"></path><g id="node_text25" fill="black"><text id="kity_text_326" text-rendering="inherit" font-size="12" dy=".8em" y="839.6999994277953" x="747.4998919116147">基督教圣经</text></g></g><g id="minder_node26" opacity="1"><g id="node_expander25" style="cursor: pointer;"><path id="kity_path_337" fill="white" stroke="gray" d="M663.499893610568,1518.499983974737A6,6,0,1,1,651.499893610568,1518.499983974737A6,6,0,1,1,663.499893610568,1518.499983974737"></path><path id="kity_path_338" fill="none" stroke="gray" d="M652.999893610568,1518.499983974737L661.999893610568,1518.499983974737"></path></g><path id="node_outline26" fill="none" stroke="none" d="M668.499893610568,1507.499983974737h182a5,5,0,0,1,5,5v12a5,5,0,0,1,-5,5h-182a5,5,0,0,1,-5,-5v-12a5,5,0,0,1,5,-5z" stroke-width="3"></path><g id="node_text26" fill="black"><text id="kity_text_334" text-rendering="inherit" font-size="12" dy=".8em" y="1510.6999840224207" x="673.499893610568">基督教正统神学:归正改革宗神学</text></g></g><g id="minder_node27" opacity="1"><g id="node_expander26" style="cursor: pointer;" display="none"><path id="kity_path_345" fill="white" stroke="gray" d="M754.4998915213146,1770.499978189112A6,6,0,1,1,742.4998915213146,1770.499978189112A6,6,0,1,1,754.4998915213146,1770.499978189112"></path><path id="kity_path_346" fill="none" stroke="gray"></path></g><path id="node_outline27" fill="none" stroke="none" d="M759.4998915213146,1759.499978189112h107a5,5,0,0,1,5,5v12a5,5,0,0,1,-5,5h-107a5,5,0,0,1,-5,-5v-12a5,5,0,0,1,5,-5z" stroke-width="3"></path><g id="node_text27" fill="black"><text id="kity_text_342" text-rendering="inherit" font-size="12" dy=".8em" y="1762.6999782367957" x="764.4998915213146">有上帝同在的教会</text></g></g><g id="minder_node28" opacity="1"><g id="node_expander27" style="cursor: pointer;"><path id="kity_path_353" fill="white" stroke="gray" d="M397.4998997176167,1318.499988566503A6,6,0,1,1,385.4998997176167,1318.499988566503A6,6,0,1,1,397.4998997176167,1318.499988566503"></path><path id="kity_path_354" fill="none" stroke="gray" d="M386.9998997176167,1318.499988566503L395.9998997176167,1318.499988566503"></path></g><path id="node_outline28" fill="none" stroke="none" d="M402.4998997176167,1307.499988566503h83a5,5,0,0,1,5,5v12a5,5,0,0,1,-5,5h-83a5,5,0,0,1,-5,-5v-12a5,5,0,0,1,5,-5z" stroke-width="3"></path><g id="node_text28" fill="black"><text id="kity_text_350" text-rendering="inherit" font-size="12" dy=".8em" y="1310.6999886141866" x="407.4998997176167">清教徒改革宗</text></g></g><g id="minder_node29" opacity="1"><g id="node_expander28" style="cursor: pointer;" display="none"><path id="kity_path_362" fill="white" stroke="gray" d="M526.4998967559277,1650.4999809441715A6,6,0,1,1,514.4998967559277,1650.4999809441715A6,6,0,1,1,526.4998967559277,1650.4999809441715"></path><path id="kity_path_363" fill="none" stroke="gray"></path></g><path id="node_outline29" fill="none" stroke="none" d="M531.4998967559277,1639.4999809441715h71a5,5,0,0,1,5,5v12a5,5,0,0,1,-5,5h-71a5,5,0,0,1,-5,-5v-12a5,5,0,0,1,5,-5z" stroke-width="3"></path><g id="node_text29" fill="black"><text id="kity_text_359" text-rendering="inherit" font-size="12" dy=".8em" y="1642.6999809918552" x="536.4998967559277">荷兰改革宗</text></g></g><g id="minder_node30" opacity="1"><g id="node_expander29" style="cursor: pointer;" display="none"><path id="kity_path_370" fill="white" stroke="gray" d="M502.4998973069396,1729.499979130424A6,6,0,1,1,490.4998973069396,1729.499979130424A6,6,0,1,1,502.4998973069396,1729.499979130424"></path><path id="kity_path_371" fill="none" stroke="gray"></path></g><path id="node_outline30" fill="none" stroke="none" d="M507.4998973069396,1718.499979130424h83a5,5,0,0,1,5,5v12a5,5,0,0,1,-5,5h-83a5,5,0,0,1,-5,-5v-12a5,5,0,0,1,5,-5z" stroke-width="3"></path><g id="node_text30" fill="black"><text id="kity_text_367" text-rendering="inherit" font-size="12" dy=".8em" y="1721.6999791781077" x="512.4998973069396">苏格兰改革宗</text></g></g><g id="minder_node43"><g id="node_expander42" style="cursor: pointer;" display="none"><path id="kity_path_501" fill="white" stroke="gray" d="M2347.499854947899,648.5000039489187A6,6,0,1,1,2335.499854947899,648.5000039489187A6,6,0,1,1,2347.499854947899,648.5000039489187"></path><path id="kity_path_502" fill="none" stroke="gray"></path></g><path id="node_outline43" fill="none" stroke="none" d="M2352.499854947899,632.5000039489187h64a5,5,0,0,1,5,5v22a5,5,0,0,1,-5,5h-64a5,5,0,0,1,-5,-5v-22a5,5,0,0,1,5,-5z" stroke-width="3"></path><g id="node_text43" fill="black"><text id="kity_text_498" text-rendering="inherit" font-size="12" dy=".8em" y="640.7000039966024" x="2357.499854947899">还有</text></g><a id="kity_a_503" xlink:href="http://43.136.235.235/c1/OneDrive%20-%20MSFT/%E6%96%B0/2023911----20231101----20231119" target="_blank" xlink:title="http://43.136.235.235/c1/OneDrive%20-%20MSFT/%E6%96%B0/2023911----20231101----20231119" style="cursor: pointer;"><path id="kity_path_505" fill="rgba(255, 255, 255, 0)" stroke="none" d="M2391.499854947899,637.5000039489187h16a4,4,0,0,1,4,4v14a4,4,0,0,1,-4,4h-16a4,4,0,0,1,-4,-4v-14a4,4,0,0,1,4,-4z"></path><path id="kity_path_504" fill="#666" stroke="none" d="M2406.113854947899,653.7240039489187h-1.278c-1.668,0,-3.07,-1.07,-3.599,-2.556h4.877c0.707,0,1.278,-0.571,1.278,-1.278V647.3340039489186c0,-0.707,-0.571,-1.278,-1.278,-1.278h-4.877C2401.7658549478992,644.5710039489187,2403.1678549478993,643.5000039489187,2404.835854947899,643.5000039489187h1.278c2.116,0,3.834,1.716,3.834,3.834V649.8900039489187C2409.947854947899,652.0080039489187,2408.229854947899,653.7240039489187,2406.113854947899,653.7240039489187zM2394.6118549478992,648.6120039489186c0,-0.707,0.573,-1.278,1.278,-1.278h7.668c0.707,0,1.278,0.571,1.278,1.278S2404.264854947899,649.8900039489187,2403.557854947899,649.8900039489187H2395.889854947899C2395.184854947899,649.8900039489187,2394.6118549478992,649.3190039489186,2394.6118549478992,648.6120039489186zM2392.055854947899,647.3340039489186V649.8900039489187c0,0.707,0.573,1.278,1.278,1.278h4.877c-0.528,1.486,-1.932,2.556,-3.599,2.556H2393.333854947899C2391.215854947899,653.7240039489187,2389.499854947899,652.0080039489187,2389.499854947899,649.8900039489187V647.3340039489186C2389.499854947899,645.2160039489187,2391.215854947899,643.5000039489187,2393.333854947899,643.5000039489187h1.278c1.667,0,3.071,1.071,3.599,2.556H2393.333854947899C2392.628854947899,646.0560039489187,2392.055854947899,646.6270039489186,2392.055854947899,647.3340039489186z"></path></a></g><g id="minder_node31" opacity="1"><g id="node_expander30" style="cursor: pointer;" display="none"><path id="kity_path_384" fill="white" stroke="gray" d="M874.499888766255,796.5000005510119A6,6,0,1,1,862.499888766255,796.5000005510119A6,6,0,1,1,874.499888766255,796.5000005510119"></path><path id="kity_path_385" fill="none" stroke="gray"></path></g><path id="node_outline31" fill="none" stroke="none" d="M879.499888766255,785.5000005510119h191a5,5,0,0,1,5,5v12a5,5,0,0,1,-5,5h-191a5,5,0,0,1,-5,-5v-12a5,5,0,0,1,5,-5z" stroke-width="3"></path><g id="node_text31" fill="black"><text id="kity_text_381" text-rendering="inherit" font-size="12" dy=".8em" y="788.7000005986956" x="884.499888766255">所归纳出的信经、信条、要理问答</text></g></g><g id="minder_node32" opacity="1"><g id="node_expander31" style="cursor: pointer;"><path id="kity_path_393" fill="white" stroke="gray" d="M596.4998951488096,658.5000037193304A6,6,0,1,1,584.4998951488096,658.5000037193304A6,6,0,1,1,596.4998951488096,658.5000037193304"></path><path id="kity_path_394" fill="none" stroke="gray" d="M585.9998951488096,658.5000037193304L594.9998951488096,658.5000037193304"></path></g><path id="node_outline32" fill="none" stroke="none" d="M601.4998951488096,647.5000037193304h59a5,5,0,0,1,5,5v12a5,5,0,0,1,-5,5h-59a5,5,0,0,1,-5,-5v-12a5,5,0,0,1,5,-5z" stroke-width="3"></path><g id="node_text32" fill="black"><text id="kity_text_390" text-rendering="inherit" font-size="12" dy=".8em" y="650.7000037670141" x="606.4998951488096">正统译本</text></g></g><g id="minder_node37" opacity="1"><g id="node_expander36" style="cursor: pointer;" display="none"><path id="kity_path_433" fill="white" stroke="gray" d="M705.4998926462972,596.5000051427778A6,6,0,1,1,693.4998926462972,596.5000051427778A6,6,0,1,1,705.4998926462972,596.5000051427778"></path><path id="kity_path_434" fill="none" stroke="gray"></path></g><path id="node_outline37" fill="none" stroke="none" d="M710.4998926462972,585.5000051427778h155a5,5,0,0,1,5,5v12a5,5,0,0,1,-5,5h-155a5,5,0,0,1,-5,-5v-12a5,5,0,0,1,5,-5z" stroke-width="3"></path><g id="node_text37" fill="black"><text id="kity_text_430" text-rendering="inherit" font-size="12" dy=".8em" y="588.7000051904615" x="715.4998926462972">中文和合本和新标点和合本</text></g></g><g id="minder_node38" opacity="1"><g id="node_expander37" style="cursor: pointer;" display="none"><path id="kity_path_441" fill="white" stroke="gray" d="M705.4998926462972,684.5000031224008A6,6,0,1,1,693.4998926462972,684.5000031224008A6,6,0,1,1,705.4998926462972,684.5000031224008"></path><path id="kity_path_442" fill="none" stroke="gray"></path></g><path id="node_outline38" fill="none" stroke="none" d="M710.4998926462972,637.5000031224008h358a5,5,0,0,1,5,5v84a5,5,0,0,1,-5,5h-358a5,5,0,0,1,-5,-5v-84a5,5,0,0,1,5,-5z" stroke-width="3"></path><g id="node_text38" fill="black"><text id="kity_text_438" text-rendering="inherit" font-size="12" dy=".8em" y="640.7000031700845" x="715.4998926462972">新国际译本（New International Version，简称NIV）</text><text id="kity_text_443" text-rendering="inherit" font-size="12" dy=".8em" y="658.7000031700845" x="715.4998926462972">英王詹姆斯译本（King James Version，简称KJV）</text><text id="kity_text_444" text-rendering="inherit" font-size="12" dy=".8em" y="676.7000031700845" x="715.4998926462972">美国标准译本（American Standard Version，简称ASV）</text><text id="kity_text_445" text-rendering="inherit" font-size="12" dy=".8em" y="694.7000031700845" x="715.4998926462972">新美国标准译本（New American Standard Bible，简称NASB）</text><text id="kity_text_446" text-rendering="inherit" font-size="12" dy=".8em" y="712.7000031700845" x="715.4998926462972">新英格兰译本（New English Translation，简称NET）</text></g></g><g id="kity_g_12" display="none"><path id="kity_path_13" fill="none" stroke="rgb(66, 94, 112)" d="M335.4998779296875,1446.5h47a5,5,0,0,1,5,5v12a5,5,0,0,1,-5,5h-47a5,5,0,0,1,-5,-5v-12a5,5,0,0,1,5,-5z" stroke-width="5"></path></g><g id="minder_node46" opacity="1"><g id="node_expander44" style="cursor: pointer;" display="none"><path id="kity_path_576" fill="white" stroke="gray" d="M321.49990146248774,1135.4999927679687A6,6,0,1,1,309.49990146248774,1135.4999927679687A6,6,0,1,1,321.49990146248774,1135.4999927679687"></path><path id="kity_path_577" fill="none" stroke="gray"></path></g><path id="node_outline45" fill="none" stroke="none" d="M326.49990146248774,1124.4999927679687h38a5,5,0,0,1,5,5v12a5,5,0,0,1,-5,5h-38a5,5,0,0,1,-5,-5v-12a5,5,0,0,1,5,-5z" stroke-width="3"></path><g id="node_text45" fill="black"><text id="kity_text_558" text-rendering="inherit" font-size="12" dy=".8em" y="1127.6999928156524" x="331.49990146248774">巴刻&#xa0;</text></g></g><g id="minder_node47" opacity="1"><g id="node_expander45" style="cursor: pointer;" display="none"><path id="kity_path_579" fill="white" stroke="gray" d="M183.4999046308062,1306.4999888420089A6,6,0,1,1,171.4999046308062,1306.4999888420089A6,6,0,1,1,183.4999046308062,1306.4999888420089"></path><path id="kity_path_580" fill="none" stroke="gray"></path></g><path id="node_outline46" fill="none" stroke="none" d="M188.4999046308062,1295.4999888420089h60a5,5,0,0,1,5,5v12a5,5,0,0,1,-5,5h-60a5,5,0,0,1,-5,-5v-12a5,5,0,0,1,5,-5z" stroke-width="3"></path><g id="node_text46" fill="black"><text id="kity_text_560" text-rendering="inherit" font-size="12" dy=".8em" y="1298.6999888896926" x="193.4999046308062">约翰欧文</text></g></g><g id="minder_node48" opacity="1"><g id="node_expander46" style="cursor: pointer;" display="none"><path id="kity_path_582" fill="white" stroke="gray" d="M21.499908350136593,1352.4999877859027A6,6,0,1,1,9.499908350136593,1352.4999877859027A6,6,0,1,1,21.499908350136593,1352.4999877859027"></path><path id="kity_path_583" fill="none" stroke="gray"></path></g><path id="node_outline47" fill="none" stroke="none" d="M26.499908350136593,1341.4999877859027h144a5,5,0,0,1,5,5v12a5,5,0,0,1,-5,5h-144a5,5,0,0,1,-5,-5v-12a5,5,0,0,1,5,-5z" stroke-width="3"></path><g id="node_text47" fill="black"><text id="kity_text_562" text-rendering="inherit" font-size="12" dy=".8em" y="1344.6999878335864" x="31.499908350136593">周毕克、周比克、周必克</text></g></g><g id="minder_node49" opacity="1"><g id="node_expander47" style="cursor: pointer;" display="none"><path id="kity_path_585" fill="white" stroke="gray" d="M44.499907822083514,1411.4999864313318A6,6,0,1,1,32.499907822083514,1411.4999864313318A6,6,0,1,1,44.499907822083514,1411.4999864313318"></path><path id="kity_path_586" fill="none" stroke="gray"></path></g><path id="node_outline48" fill="none" stroke="none" d="M49.499907822083514,1400.4999864313318h96a5,5,0,0,1,5,5v12a5,5,0,0,1,-5,5h-96a5,5,0,0,1,-5,-5v-12a5,5,0,0,1,5,-5z" stroke-width="3"></path><g id="node_text48" fill="black"><text id="kity_text_564" text-rendering="inherit" font-size="12" dy=".8em" y="1403.6999864790155" x="54.499907822083514">史普罗、司布尔</text></g></g><g id="minder_node50" opacity="1"><g id="node_expander48" style="cursor: pointer;" display="none"><path id="kity_path_588" fill="white" stroke="gray" d="M313.4999016461584,1248.499990173621A6,6,0,1,1,301.4999016461584,1248.499990173621A6,6,0,1,1,313.4999016461584,1248.499990173621"></path><path id="kity_path_589" fill="none" stroke="gray"></path></g><path id="node_outline49" fill="none" stroke="none" d="M318.4999016461584,1237.499990173621h60a5,5,0,0,1,5,5v12a5,5,0,0,1,-5,5h-60a5,5,0,0,1,-5,-5v-12a5,5,0,0,1,5,-5z" stroke-width="3"></path><g id="node_text49" fill="black"><text id="kity_text_566" text-rendering="inherit" font-size="12" dy=".8em" y="1240.6999902213047" x="323.4999016461584">爱德华兹</text></g></g><g id="minder_node51" opacity="1"><g id="node_expander50" style="cursor: pointer;" display="none"><path id="kity_path_599" fill="white" stroke="gray" d="M279.4999024267586,1311.4999887272147A6,6,0,1,1,267.4999024267586,1311.4999887272147A6,6,0,1,1,279.4999024267586,1311.4999887272147"></path><path id="kity_path_600" fill="none" stroke="gray"></path></g><path id="node_outline51" fill="none" stroke="none" d="M284.4999024267586,1300.4999887272147h72a5,5,0,0,1,5,5v12a5,5,0,0,1,-5,5h-72a5,5,0,0,1,-5,-5v-12a5,5,0,0,1,5,-5z" stroke-width="3"></path><g id="node_text51" fill="black"><text id="kity_text_596" text-rendering="inherit" font-size="12" dy=".8em" y="1303.6999887748984" x="289.4999024267586">约翰加尔文</text></g></g><g id="minder_node52" opacity="1"><g id="node_expander51" style="cursor: pointer;" display="none"><path id="kity_path_607" fill="white" stroke="gray" d="M34.49990805167181,1264.4999898062797A6,6,0,1,1,22.49990805167181,1264.4999898062797A6,6,0,1,1,34.49990805167181,1264.4999898062797"></path><path id="kity_path_608" fill="none" stroke="gray"></path></g><path id="node_outline52" fill="none" stroke="none" d="M39.49990805167181,1253.4999898062797h36a5,5,0,0,1,5,5v12a5,5,0,0,1,-5,5h-36a5,5,0,0,1,-5,-5v-12a5,5,0,0,1,5,-5z" stroke-width="3"></path><g id="node_text52" fill="black"><text id="kity_text_604" text-rendering="inherit" font-size="12" dy=".8em" y="1256.6999898539634" x="44.49990805167181">宾克</text></g></g><g id="minder_node53" opacity="1"><g id="node_expander52" style="cursor: pointer;" display="none"><path id="kity_path_615" fill="white" stroke="gray" d="M265.4999027481822,1393.4999868445907A6,6,0,1,1,253.4999027481822,1393.4999868445907A6,6,0,1,1,265.4999027481822,1393.4999868445907"></path><path id="kity_path_616" fill="none" stroke="gray"></path></g><path id="node_outline53" fill="none" stroke="none" d="M270.4999027481822,1382.4999868445907h47a5,5,0,0,1,5,5v12a5,5,0,0,1,-5,5h-47a5,5,0,0,1,-5,-5v-12a5,5,0,0,1,5,-5z" stroke-width="3"></path><g id="node_text53" fill="black"><text id="kity_text_612" text-rendering="inherit" font-size="12" dy=".8em" y="1385.6999868922744" x="275.4999027481822">伯特纳</text></g></g><g id="minder_node45"><g id="node_expander49" style="cursor: pointer;"><path id="kity_path_591" fill="white" stroke="gray" d="M139.4999056409947,1274.4999895766914A6,6,0,1,1,127.49990564099471,1274.4999895766914A6,6,0,1,1,139.4999056409947,1274.4999895766914"></path><path id="kity_path_592" fill="none" stroke="gray" d="M128.9999056409947,1274.4999895766914L137.9999056409947,1274.4999895766914"></path></g><path id="node_outline50" fill="none" stroke="none" d="M144.4999056409947,1263.4999895766914h124a5,5,0,0,1,5,5v12a5,5,0,0,1,-5,5h-124a5,5,0,0,1,-5,-5v-12a5,5,0,0,1,5,-5z" stroke-width="3"></path><g id="node_text50" fill="black"><text id="kity_text_568" text-rendering="inherit" font-size="12" dy=".8em" y="1266.6999896243751" x="149.4999056409947">15世纪后期直到近代&#xa0;</text></g></g><g id="minder_node34" opacity="1"><g id="node_expander33" style="cursor: pointer;"><path id="kity_path_409" fill="white" stroke="gray" d="M283.49990233492304,1191.4999914822743A6,6,0,1,1,271.49990233492304,1191.4999914822743A6,6,0,1,1,283.49990233492304,1191.4999914822743"></path><path id="kity_path_410" fill="none" stroke="gray" d="M272.99990233492304,1191.4999914822743L281.99990233492304,1191.4999914822743"></path></g><path id="node_outline34" fill="none" stroke="none" d="M288.49990233492304,1180.4999914822743h11a5,5,0,0,1,5,5v12a5,5,0,0,1,-5,5h-11a5,5,0,0,1,-5,-5v-12a5,5,0,0,1,5,-5z" stroke-width="3"></path><g id="node_text34" fill="black"><text id="kity_text_406" text-rendering="inherit" font-size="12" dy=".8em" y="1183.699991529958" x="293.49990233492304"> </text></g></g><g id="minder_node36" opacity="1"><g id="node_expander35" style="cursor: pointer;"><path id="kity_path_425" fill="white" stroke="gray" d="M549.4998962278746,1237.499990426168A6,6,0,1,1,537.4998962278746,1237.499990426168A6,6,0,1,1,549.4998962278746,1237.499990426168"></path><path id="kity_path_426" fill="none" stroke="gray" d="M538.9998962278746,1237.499990426168L547.9998962278746,1237.499990426168"></path></g><path id="node_outline36" fill="none" stroke="none" d="M554.4998962278746,1226.499990426168h34a5,5,0,0,1,5,5v12a5,5,0,0,1,-5,5h-34a5,5,0,0,1,-5,-5v-12a5,5,0,0,1,5,-5z" stroke-width="3"></path><g id="node_text36" fill="black"><text id="kity_text_422" text-rendering="inherit" font-size="12" dy=".8em" y="1229.6999904738518" x="559.4998962278746">书名</text></g></g><g id="minder_node54" opacity="1"><g id="node_expander53" style="cursor: pointer;" display="none"><path id="kity_path_634" fill="white" stroke="gray" d="M349.4999008196405,1440.4999857655257A6,6,0,1,1,337.4999008196405,1440.4999857655257A6,6,0,1,1,349.4999008196405,1440.4999857655257"></path><path id="kity_path_635" fill="none" stroke="gray"></path></g><path id="node_outline54" fill="none" stroke="none" d="M354.4999008196405,1429.4999857655257h142a5,5,0,0,1,5,5v12a5,5,0,0,1,-5,5h-142a5,5,0,0,1,-5,-5v-12a5,5,0,0,1,5,-5z" stroke-width="3"></path><g id="node_text54" fill="black"><text id="kity_text_631" text-rendering="inherit" font-size="12" dy=".8em" y="1432.6999858132094" x="359.4999008196405">中国的唐崇荣、林慈信、</text></g></g><g id="minder_node55"><g id="node_expander54" style="cursor: pointer;" display="none"><path id="kity_path_642" fill="white" stroke="gray" d="M313.4999016461584,1508.4999842043253A6,6,0,1,1,301.4999016461584,1508.4999842043253A6,6,0,1,1,313.4999016461584,1508.4999842043253"></path><path id="kity_path_643" fill="none" stroke="gray"></path></g><path id="node_outline55" fill="none" stroke="none" d="M318.4999016461584,1497.4999842043253h60a5,5,0,0,1,5,5v12a5,5,0,0,1,-5,5h-60a5,5,0,0,1,-5,-5v-12a5,5,0,0,1,5,-5z" stroke-width="3"></path><g id="node_text55" fill="black"><text id="kity_text_639" text-rendering="inherit" font-size="12" dy=".8em" y="1500.699984252009" x="323.4999016461584">分支主题</text></g></g><g id="minder_node56"><g id="node_expander55" style="cursor: pointer;" display="none"><path id="kity_path_650" fill="white" stroke="gray" d="M633.4998942993329,1154.499992331751A6,6,0,1,1,621.4998942993329,1154.499992331751A6,6,0,1,1,633.4998942993329,1154.499992331751"></path><path id="kity_path_651" fill="none" stroke="gray"></path></g><path id="node_outline56" fill="none" stroke="none" d="M638.4998942993329,1143.499992331751h163a5,5,0,0,1,5,5v12a5,5,0,0,1,-5,5h-163a5,5,0,0,1,-5,-5v-12a5,5,0,0,1,5,-5z" stroke-width="3"></path><g id="node_text56" fill="black"><text id="kity_text_647" text-rendering="inherit" font-size="12" dy=".8em" y="1146.6999923794347" x="643.4998942993329">基督教要义&#xa0; 作者约翰加尔文</text></g></g><g id="minder_node57"><g id="node_expander56" style="cursor: pointer;" display="none"><path id="kity_path_658" fill="white" stroke="gray" d="M633.4998942993329,1206.4999911378918A6,6,0,1,1,621.4998942993329,1206.4999911378918A6,6,0,1,1,633.4998942993329,1206.4999911378918"></path><path id="kity_path_659" fill="none" stroke="gray"></path></g><path id="node_outline57" fill="none" stroke="none" d="M638.4998942993329,1195.4999911378918h71a5,5,0,0,1,5,5v12a5,5,0,0,1,-5,5h-71a5,5,0,0,1,-5,-5v-12a5,5,0,0,1,5,-5z" stroke-width="3"></path><g id="node_text57" fill="black"><text id="kity_text_655" text-rendering="inherit" font-size="12" dy=".8em" y="1198.6999911855755" x="643.4998942993329">清教徒神学</text></g></g><g id="minder_node58"><g id="node_expander57" style="cursor: pointer;" display="none"><path id="kity_path_666" fill="white" stroke="gray" d="M633.4998942993329,1258.4999899440327A6,6,0,1,1,621.4998942993329,1258.4999899440327A6,6,0,1,1,633.4998942993329,1258.4999899440327"></path><path id="kity_path_667" fill="none" stroke="gray"></path></g><path id="node_outline58" fill="none" stroke="none" d="M638.4998942993329,1247.4999899440327h95a5,5,0,0,1,5,5v12a5,5,0,0,1,-5,5h-95a5,5,0,0,1,-5,-5v-12a5,5,0,0,1,5,-5z" stroke-width="3"></path><g id="node_text58" fill="black"><text id="kity_text_663" text-rendering="inherit" font-size="12" dy=".8em" y="1250.6999899917164" x="643.4998942993329">伯克富系统神学</text></g></g><g id="minder_node59"><g id="node_expander58" style="cursor: pointer;"><path id="kity_path_674" fill="white" stroke="gray" d="M633.4998942993329,1315.4999886353794A6,6,0,1,1,621.4998942993329,1315.4999886353794A6,6,0,1,1,633.4998942993329,1315.4999886353794"></path><path id="kity_path_675" fill="none" stroke="gray" d="M622.9998942993329,1315.4999886353794L631.9998942993329,1315.4999886353794"></path></g><path id="node_outline59" fill="none" stroke="none" d="M638.4998942993329,1299.4999886353794h89a5,5,0,0,1,5,5v22a5,5,0,0,1,-5,5h-89a5,5,0,0,1,-5,-5v-22a5,5,0,0,1,5,-5z" stroke-width="3"></path><g id="node_text59" fill="black"><text id="kity_text_671" text-rendering="inherit" font-size="12" dy=".8em" y="1307.699988683063" x="643.4998942993329">资源链接</text></g><a id="kity_a_676" xlink:href="http://43.136.235.235/c2/2/%E5%B7%B2%E4%B8%8A%E4%BC%A0%E7%9A%84%E5%92%8C%E4%B8%8D%E4%B8%8A%E4%BC%A0%E7%9A%84/%E6%94%B9%E9%9D%A9%E5%AE%97" target="_blank" xlink:title="http://43.136.235.235/c2/2/%E5%B7%B2%E4%B8%8A%E4%BC%A0%E7%9A%84%E5%92%8C%E4%B8%8D%E4%B8%8A%E4%BC%A0%E7%9A%84/%E6%94%B9%E9%9D%A9%E5%AE%97" style="cursor: pointer;"><path id="kity_path_678" fill="rgba(255, 255, 255, 0)" stroke="none" d="M702.4998942993329,1304.4999886353794h16a4,4,0,0,1,4,4v14a4,4,0,0,1,-4,4h-16a4,4,0,0,1,-4,-4v-14a4,4,0,0,1,4,-4z"></path><path id="kity_path_677" fill="#666" stroke="none" d="M717.113894299333,1320.7239886353793h-1.278c-1.668,0,-3.07,-1.07,-3.599,-2.556h4.877c0.707,0,1.278,-0.571,1.278,-1.278V1314.3339886353795c0,-0.707,-0.571,-1.278,-1.278,-1.278h-4.877C712.7658942993329,1311.5709886353793,714.1678942993329,1310.4999886353794,715.835894299333,1310.4999886353794h1.278c2.116,0,3.834,1.716,3.834,3.834V1316.8899886353795C720.9478942993329,1319.0079886353794,719.229894299333,1320.7239886353793,717.113894299333,1320.7239886353793zM705.6118942993329,1315.6119886353795c0,-0.707,0.573,-1.278,1.278,-1.278h7.668c0.707,0,1.278,0.571,1.278,1.278S715.2648942993329,1316.8899886353795,714.5578942993329,1316.8899886353795H706.8898942993329C706.1848942993329,1316.8899886353795,705.6118942993329,1316.3189886353794,705.6118942993329,1315.6119886353795zM703.055894299333,1314.3339886353795V1316.8899886353795c0,0.707,0.573,1.278,1.278,1.278h4.877c-0.528,1.486,-1.932,2.556,-3.599,2.556H704.3338942993329C702.215894299333,1320.7239886353793,700.4998942993329,1319.0079886353794,700.4998942993329,1316.8899886353795V1314.3339886353795C700.4998942993329,1312.2159886353793,702.215894299333,1310.4999886353794,704.3338942993329,1310.4999886353794h1.278c1.667,0,3.071,1.071,3.599,2.556H704.3338942993329C703.628894299333,1313.0559886353794,703.055894299333,1313.6269886353793,703.055894299333,1314.3339886353795z"></path></a></g><g id="minder_node60"><g id="node_expander59" style="cursor: pointer;" display="none"><path id="kity_path_685" fill="white" stroke="gray" d="M772.4998911080556,1315.4999886353794A6,6,0,1,1,760.4998911080556,1315.4999886353794A6,6,0,1,1,772.4998911080556,1315.4999886353794"></path><path id="kity_path_686" fill="none" stroke="gray"></path></g><path id="node_outline60" fill="none" stroke="rgb(57, 80, 96)" d="M777.4998911080556,1299.4999886353794h64a5,5,0,0,1,5,5v22a5,5,0,0,1,-5,5h-64a5,5,0,0,1,-5,-5v-22a5,5,0,0,1,5,-5z" stroke-width="3"></path><g id="node_text60" fill="black"><text id="kity_text_682" text-rendering="inherit" font-size="12" dy=".8em" y="1307.699988683063" x="782.4998911080556">还有</text></g><a id="kity_a_687" xlink:href="http://43.136.235.235/c2/%E6%95%B4%E7%90%86/%E7%B3%BB%E7%BB%9F%E7%A5%9E%E5%AD%A6" target="_blank" xlink:title="http://43.136.235.235/c2/%E6%95%B4%E7%90%86/%E7%B3%BB%E7%BB%9F%E7%A5%9E%E5%AD%A6" style="cursor: pointer;"><path id="kity_path_689" fill="rgba(255, 255, 255, 0)" stroke="none" d="M816.4998911080556,1304.4999886353794h16a4,4,0,0,1,4,4v14a4,4,0,0,1,-4,4h-16a4,4,0,0,1,-4,-4v-14a4,4,0,0,1,4,-4z"></path><path id="kity_path_688" fill="#666" stroke="none" d="M831.1138911080557,1320.7239886353793h-1.278c-1.668,0,-3.07,-1.07,-3.599,-2.556h4.877c0.707,0,1.278,-0.571,1.278,-1.278V1314.3339886353795c0,-0.707,-0.571,-1.278,-1.278,-1.278h-4.877C826.7658911080556,1311.5709886353793,828.1678911080556,1310.4999886353794,829.8358911080556,1310.4999886353794h1.278c2.116,0,3.834,1.716,3.834,3.834V1316.8899886353795C834.9478911080556,1319.0079886353794,833.2298911080557,1320.7239886353793,831.1138911080557,1320.7239886353793zM819.6118911080556,1315.6119886353795c0,-0.707,0.573,-1.278,1.278,-1.278h7.668c0.707,0,1.278,0.571,1.278,1.278S829.2648911080556,1316.8899886353795,828.5578911080556,1316.8899886353795H820.8898911080556C820.1848911080556,1316.8899886353795,819.6118911080556,1316.3189886353794,819.6118911080556,1315.6119886353795zM817.0558911080557,1314.3339886353795V1316.8899886353795c0,0.707,0.573,1.278,1.278,1.278h4.877c-0.528,1.486,-1.932,2.556,-3.599,2.556H818.3338911080556C816.2158911080556,1320.7239886353793,814.4998911080556,1319.0079886353794,814.4998911080556,1316.8899886353795V1314.3339886353795C814.4998911080556,1312.2159886353793,816.2158911080556,1310.4999886353794,818.3338911080556,1310.4999886353794h1.278c1.667,0,3.071,1.071,3.599,2.556H818.3338911080556C817.6288911080557,1313.0559886353794,817.0558911080557,1313.6269886353793,817.0558911080557,1314.3339886353795z"></path></a></g></g></g></svg>